<?xml version="1.0" standalone="no"?>
<!DOCTYPE svg PUBLIC "-//W3C//DTD SVG 1.1//EN" "http://www.w3.org/Graphics/SVG/1.1/DTD/svg11.dtd" >
<svg xmlns="http://www.w3.org/2000/svg">
<metadata>
This is a custom SVG webfont generated by Font Squirrel.
Copyright   : Copyright 2009 by Yoram Gnat yoramgnathomeilcom Distributed under the terms of GNU GPL version2 httpwwwgnuorglicensesgplhtmlAs a special exception if you create a document which uses this font and embed this font or unaltered portions of this font into the document this font does not by itself cause the resulting document to be covered by the GNU General Public License This exception does not however invalidate any other reasons why the document might be covered by the GNU General Public License If you modify this font you may extend this exception to your version of the font but you are not obligated to do so If you do not wish to do so delete this exception statement from your version  
</metadata>
<defs>
<font id="webfontkcmGmuIr" horiz-adv-x="0" >
<font-face units-per-em="2048" ascent="1638" descent="-410" />
<missing-glyph horiz-adv-x="563" />
<glyph unicode=" "  horiz-adv-x="563" />
<glyph unicode="&#x09;" horiz-adv-x="563" />
<glyph unicode="&#xa0;" horiz-adv-x="563" />
<glyph unicode="!" horiz-adv-x="420" d="M109 136q0 79 35.5 141t81.5 62q36 0 59 -40t23 -99q0 -79 -35.5 -141t-82.5 -62q-36 0 -58.5 40t-22.5 99zM97 1424v5v14q0 80 68.5 148.5t122.5 68.5q29 0 29 -54l-50 -868q-7 -46 -17 -74.5t-24.5 -40.5t-25.5 -15t-29 -3q-14 0 -22.5 21.5t-8.5 46.5z" />
<glyph unicode="&#x22;" horiz-adv-x="597" d="M491 1610l-65 -457q-4 -22 -23.5 -36t-40.5 -14q-40 0 -40 39v435q0 30 33.5 46.5t74.5 16.5q61 0 61 -26v-4zM262 1602l-65 -457q-4 -21 -23 -35t-41 -14q-40 0 -40 38v435q0 30 33.5 46.5t74.5 16.5q61 0 61 -26v-4z" />
<glyph unicode="#" horiz-adv-x="979" d="M283 629l44 318h-119q-17 0 -26.5 26.5t-9.5 64.5q0 51 17 89.5t48 38.5h121l45 347q6 45 29.5 68t52.5 23q26 0 44.5 -19t18.5 -53q0 -13 -1 -19l-45 -347h83l49 353q6 45 30 68.5t52 23.5q26 0 44.5 -19.5t18.5 -52.5q0 -13 -1 -20l-50 -354h116q17 0 26.5 -26.5 t9.5 -64.5q0 -49 -17 -88t-48 -39h-118l-44 -318h119q17 0 26.5 -26.5t9.5 -63.5q0 -51 -17 -89.5t-48 -38.5h-121l-45 -347q-6 -45 -29.5 -68t-52.5 -23q-26 0 -44.5 19t-18.5 52q0 14 1 20l45 347h-83l-49 -353q-6 -45 -30 -68.5t-52 -23.5q-26 0 -44.5 19t-18.5 53 q0 13 1 20l50 353h-116q-17 0 -26.5 26.5t-9.5 64.5q0 50 17 88.5t48 38.5h118zM509 629l45 318h-83l-45 -318h83z" />
<glyph unicode="$" horiz-adv-x="994" d="M671 416q0 82 -30.5 140t-85.5 72v-419q60 23 88 67t28 140zM424 1420q-43 0 -78 -73t-35 -162q0 -42 12.5 -87.5t39.5 -80.5t61 -35v438zM308 454l8 -34q12 -52 26.5 -85.5t29.5 -47.5t26 -18t26 -4v477q-8 4 -50 22l-74 34q-32 16 -70.5 40t-56.5 45q-37 44 -50 79.5 t-13 94.5q0 71 12.5 133t36.5 112.5t51 91t65.5 77t70.5 61.5t74 54v119q0 55 37.5 97.5t69.5 42.5q23 0 23 -26v-177q42 8 70 8q27 0 50 -3.5t40 -8.5t32 -14t25.5 -16.5t18.5 -19.5l14 -20q5 -8 9.5 -20t6.5 -18l4 -16q3 -12 3 -13q2 -9 2 -26q0 -59 -53 -112t-101 -53 q-27 0 -40 21l-11 19q-8 15 -17 35t-14 29t-14.5 21t-23.5 23v-465q148 -65 259 -142q26 -32 40.5 -54t28 -64t13.5 -91q0 -83 -33.5 -173.5t-86 -166t-106 -134.5t-103.5 -98v-138q0 -51 -40.5 -95t-72.5 -44q-20 0 -20 22v199q-11 -4 -32 -4q-15 0 -42 2t-34 2 q-27 0 -63 12.5t-73 36t-62.5 65t-25.5 92.5q0 96 61 179.5t113 83.5q26 0 36 -29z" />
<glyph unicode="%" horiz-adv-x="1564" d="M1083 861q-5 -8 -22 -8q-28 0 -28 24q0 15 25 55q42 74 77 102.5t99 28.5q63 0 117 -70t84 -174.5t30 -210.5q0 -125 -54 -264t-139 -233.5t-166 -94.5q-75 0 -138 114t-80 263v18q0 221 162 375q11 10 18 10q10 0 10 -23v-5v-7v-6q-21 -65 -28 -103t-7 -96v-11 q0 -91 21.5 -172t60.5 -131t85 -50h7q31 0 55.5 36t35.5 78t11 75q0 95 -27 212.5t-73 205t-91 87.5q-8 0 -19 -6t-19 -12zM295 1384q-5 -8 -22 -8q-28 0 -28 24q0 12 24 56q43 74 78 102t98 28t117.5 -70t84 -174.5t29.5 -210.5q0 -125 -54 -264t-138.5 -233.5 t-165.5 -94.5q-76 0 -139 114t-79 263v19q0 216 169 379q13 12 20 12t7 -14q0 -16 -7 -34q-21 -65 -28 -103t-7 -96v-11q0 -91 21.5 -172t60.5 -131t85 -50h8q31 0 55.5 36t35.5 78.5t11 75.5q0 94 -27 211.5t-73 205t-92 87.5q-8 0 -19 -6.5t-18 -12.5zM1120 1557 q18 0 34.5 -20.5t16.5 -55.5q0 -26 -11 -49l-679 -1416q-15 -34 -42 -34q-18 0 -34.5 21t-16.5 56q0 27 11 50l679 1412q17 36 42 36z" />
<glyph unicode="&#x26;" horiz-adv-x="1283" d="M555 707q-145 0 -203 -44t-58 -166q0 -63 27 -117.5t67.5 -88t85 -52.5t82.5 -19h51q63 11 93 42t30 103v342h-175zM303 1191q0 -61 17.5 -104t41.5 -65t63.5 -34t67.5 -14.5t69 -2.5h27h160v19q0 53 64.5 131t104.5 78q23 0 23 -37v-179h218q34 0 34 -40 q0 -58 -60 -124.5t-141 -66.5h-60v-65q0 -148 -25.5 -249t-119.5 -230q-78 -107 -152.5 -150t-154.5 -43q-35 0 -80.5 13.5t-97 43.5t-94 72.5t-70.5 108t-28 141.5q0 91 43 172t119 166l25 27l-32 26l-29 25q-10 8 -35.5 37.5t-40 56t-27 70.5t-12.5 92q0 57 23 117 t52.5 103.5t65 82.5t54.5 55.5t26 21.5l90 62q90 44 153 44q52 0 89.5 -10t55 -22.5t27.5 -30.5t11.5 -27.5t1.5 -19.5v-16q0 -63 -45 -126.5t-84 -63.5q-25 0 -35 32l-11 23q-24 52 -57.5 70.5t-96.5 18.5q-19 0 -40.5 -9t-44.5 -28.5t-38 -59t-15 -92.5z" />
<glyph unicode="'" horiz-adv-x="368" d="M275 1605l-65 -457q-4 -22 -23 -36t-41 -14q-39 0 -39 39v435q0 30 33.5 46.5t74.5 16.5q60 0 60 -27v-3z" />
<glyph unicode="(" horiz-adv-x="532" d="M267 855q0 -146 12 -269.5t38.5 -229.5t40 -149t45.5 -128q5 -16 8 -23l8 -21q13 -32 13 -71q0 -69 -35.5 -128t-75.5 -59q-36 0 -59 52l-13 30q-89 217 -119 407.5t-30 433.5q0 259 26 432.5t89 367.5q26 92 79 161.5t88 69.5q23 0 23 -38q0 -21 -9 -60l-26 -79 q-56 -170 -79.5 -318t-23.5 -381z" />
<glyph unicode=")" horiz-adv-x="532" d="M265 654q0 145 -12 269t-37.5 227t-40.5 150.5t-45 127.5l-9 25l-8 21q-13 32 -13 71q0 69 35.5 127.5t75.5 58.5q36 0 59 -51l13 -30q89 -218 119 -408t30 -434q0 -258 -26 -431.5t-89 -367.5q-26 -93 -79 -162.5t-88 -69.5q-23 0 -23 39q0 21 9 60l26 79 q56 170 79.5 318t23.5 381z" />
<glyph unicode="*" horiz-adv-x="671" d="M243 1059v27q0 32 43.5 55t85.5 23q41 0 41 -23v-5l-13 -51q-22 -87 -22 -165q30 51 60.5 81.5t42.5 35.5t17 5q26 -28 58 -92t32 -105q0 -27 -13 -27h-64q-37 0 -78 -20q63 -44 105 -116l11 -21q5 -12 5 -22q0 -43 -42 -95.5t-71 -52.5q-15 0 -18 20l-10 53 q-7 50 -42 121q0 -91 -35 -180l-9 -24q-5 -13 -23 -13q-35 0 -87.5 42.5t-52.5 70.5q0 8 6 14l29 29q54 54 82 114q-41 -13 -63 -13q-37 0 -76 12q-25 13 -25 84q0 58 14.5 120.5t28.5 62.5q2 0 4 -2l26 -35q49 -60 94 -83q-1 3 -6 15.5t-6 16.5t-5.5 15.5t-6 16.5t-4.5 16 t-4.5 17.5t-3.5 17t-3 19.5t-1.5 19.5t-0.5 21.5z" />
<glyph unicode="+" horiz-adv-x="812" d="M346 636h-205q-18 0 -28.5 28t-10.5 67q0 38 10.5 66.5t28.5 28.5h205v318q0 28 18.5 44t43.5 16t43.5 -16t18.5 -44v-318h205q18 0 28.5 -28.5t10.5 -66.5q0 -39 -10.5 -67t-28.5 -28h-204v-311q0 -28 -19 -44t-44 -16t-43.5 16t-18.5 44v311z" />
<glyph unicode="," horiz-adv-x="438" d="M331 161q0 -40 -18 -86t-43.5 -82.5t-52.5 -67.5t-47.5 -48.5t-25.5 -17.5q-14 0 -30.5 29.5t-16.5 53.5q0 16 8 24l20 16q2 2 9.5 8t9.5 8t8 7.5t8 9.5t5 11t4 14.5t1 16.5v7q0 58 -54 129l-18 22q-5 7 -5 16q0 37 42.5 87t82.5 50q11 0 20 -4q25 -23 36.5 -36 t27.5 -37.5t22.5 -56t6.5 -73.5z" />
<glyph unicode="-" horiz-adv-x="812" d="M144 638q-18 0 -28.5 28.5t-10.5 66.5q0 39 10.5 67t28.5 28h534q18 0 28.5 -28t10.5 -67q0 -38 -10.5 -66.5t-28.5 -28.5h-534z" />
<glyph unicode="." horiz-adv-x="400" d="M64 206q0 80 35.5 142t82.5 62q36 0 59 -40t23 -100q0 -79 -35.5 -141t-82.5 -62q-36 0 -59 40t-23 99z" />
<glyph unicode="/" horiz-adv-x="973" d="M186 0q-33 0 -59.5 45.5t-26.5 90.5q0 23 9 41l655 1432q14 31 41 31q33 0 63 -40.5t30 -84.5q0 -21 -9 -41l-655 -1432q-8 -17 -22 -29.5t-26 -12.5z" />
<glyph unicode="0" horiz-adv-x="994" d="M356 1207q-9 -12 -32 -12q-39 0 -39 35q0 25 23 59l12 20q61 106 110.5 146t139.5 40t168 -100.5t120.5 -249.5t42.5 -300q0 -133 -47 -285t-119.5 -274.5t-166 -204t-180.5 -81.5q-72 0 -139 77.5t-112 200t-60 260.5v26q0 316 239 546q17 16 28 16q13 0 13 -24 q0 -26 -10 -48q-30 -93 -40 -146.5t-10 -136.5v-16q0 -129 31 -245t87 -187.5t122 -71.5h10q44 0 79 51t51 111.5t16 107.5q0 136 -39 304t-104.5 293t-130.5 125q-11 0 -27 -9t-26 -18z" />
<glyph unicode="1" horiz-adv-x="546" d="M60 1169q0 24 60 103t135 150.5t109 71.5q15 0 26 -5t17.5 -17t10.5 -24.5t6 -35.5t2.5 -41.5t0.5 -50.5v-1072q0 -85 -66.5 -166.5t-115.5 -81.5q-14 0 -28 9t-14 23v771q0 96 -8 178.5t-21 129t-27 46.5q-3 0 -15.5 -10t-31.5 -10q-17 0 -28.5 8.5t-11.5 23.5z" />
<glyph unicode="2" horiz-adv-x="802" d="M282 1191q-31 0 -56.5 -11t-39 -24.5t-26 -24.5t-21.5 -11q-21 0 -38 28.5t-17 63.5q0 24 8 40l10 22q29 71 121.5 154t177.5 83q70 0 123 -38.5t81.5 -101t42.5 -129.5t14 -136v-8q0 -119 -24.5 -199.5t-83.5 -191.5l-99 -162q-78 -126 -107 -183q102 35 177 35 q52 0 178 -31q24 -7 24 -45q0 -48 -32 -120.5t-81 -128.5t-89 -56q-25 7 -108 13.5t-137 6.5q-93 0 -176 -26q-33 0 -52.5 15t-19.5 38q0 18 13 37l11 21q24 47 76 113l104 130q50 64 99 140t79.5 168.5t30.5 188.5v26q0 304 -163 304z" />
<glyph unicode="3" horiz-adv-x="730" d="M592 1228q0 -70 -23 -133.5t-50 -99.5l-50 -67q-23 -32 -23 -46q0 -7 5.5 -11t14.5 -6.5t11 -3.5q82 -28 127 -110.5t45 -208.5q0 -83 -21 -155t-51.5 -121t-78.5 -98q-48 -50 -87 -78l-93 -67q-54 -39 -81 -62q-23 -20 -44 -20q-25 0 -25 25q0 33 42 65q45 40 72.5 68 t62.5 73t52.5 94t17.5 103v25q0 75 -16 130t-46 88.5t-65.5 51.5t-82.5 27q-28 0 -43 11.5t-15 29.5q0 24 18 43t44.5 37.5t54 43.5t51 73.5t31.5 114.5v11q0 75 -45 134t-102 59q-30 0 -58 -22.5t-40 -22.5q-21 0 -21 31q0 35 29 73q3 3 8 10l50 60q20 23 56 57.5 t73.5 52.5t74.5 18q92 0 156.5 -77.5t64.5 -199.5z" />
<glyph unicode="4" horiz-adv-x="943" d="M524 1334l-46 -78l-46 -83l-40 -73q-28 -52 -37 -80l-25 -72q-15 -44 -20 -82.5t-5 -78.5q0 -72 37 -92.5t136 -20.5v258q0 56 38.5 117t85.5 98t77 37q28 0 28 -36v-429l167 32h4q19 0 19 -33q0 -38 -21.5 -93t-62 -104.5t-83.5 -59.5l-22 -12v-226q0 -53 -20 -101 t-50.5 -79t-62.5 -49.5t-56 -18.5q-41 0 -41 49v392h-245q-33 0 -57 4.5t-50 18t-40 43.5t-14 76q0 81 38 198t89.5 224t113 216t99.5 169.5t57 87.5q11 15 22 15q17 0 31 -24.5t14 -56.5q0 -27 -12 -53z" />
<glyph unicode="5" horiz-adv-x="756" d="M586 557q0 -107 -38.5 -207.5t-95.5 -171t-121.5 -125t-117.5 -81t-82 -26.5q-26 0 -41 13t-15 34q0 36 44 67l23 18q24 18 30 23.5t30 24.5q22 20 32 30l31 31q21 21 31 35l24 34q15 22 21.5 39.5t12 38.5t5.5 41q0 63 -5.5 113t-20.5 89t-28 65t-40.5 53.5t-44.5 42 t-54.5 42.5t-56.5 44l-18 15q-16 12 -16 60q0 85 41.5 222.5t109 250t127.5 112.5q6 0 43 -11.5t86 -11.5q10 0 34.5 0.5t39.5 0.5q71 0 148 22l24 7q1 0 4 1h2q16 0 16 -17q0 -14 -22 -76q-29 -69 -51.5 -112t-54 -83t-70.5 -58.5t-88 -18.5h-35q-51 0 -110 26 q-19 0 -31.5 -18t-12.5 -39q0 -33 29 -33q108 -42 195 -185t87 -321z" />
<glyph unicode="6" horiz-adv-x="857" d="M408 833q0 46 63 111.5t135 65.5q41 0 78 -46t60 -110.5t36 -127t13 -102.5q0 -299 -113.5 -461.5t-301.5 -162.5q-75 0 -145 70t-113.5 191t-43.5 258q0 130 40.5 269t92.5 241t124 207t111 152l78 91q9 9 11 12q14 14 29 14q20 0 34 -23t14 -53q0 -40 -23 -63 q-101 -103 -127 -134q-143 -170 -169 -376q-7 -52 -7 -107q0 -93 29.5 -208t86.5 -205t121 -90q34 0 55 34t21 81q0 123 -47 240t-107 171q-35 28 -35 61z" />
<glyph unicode="7" horiz-adv-x="712" d="M453 1418q49 0 91 5t65.5 10.5t28.5 5.5q23 0 39.5 -18.5t16.5 -46.5q0 -20 -9 -41l-7 -20l-78 -196l-74 -200.5t-76.5 -231t-46.5 -199.5t-22 -194v-18q0 -67 -36 -136.5t-82.5 -111t-80.5 -41.5q-38 0 -38 55q0 49 28 126l298 913h-83q-263 0 -304 74l-12 22 q-12 18 -12 46q0 50 30.5 117t73 115t73.5 48q11 0 23 -10l15 -19q43 -54 179 -54z" />
<glyph unicode="8" horiz-adv-x="864" d="M557 406q0 107 -58 193.5t-125 113.5q-83 -125 -83 -236q0 -63 13.5 -117t42 -90t67.5 -36q46 0 94.5 55.5t48.5 116.5zM102 1022q0 60 35 137.5t80.5 139t89 104t61.5 42.5q17 0 31 -14.5t14 -34.5q0 -18 -16 -34q-41 -43 -64 -95.5t-23 -96.5q0 -83 52.5 -155 t122.5 -90q39 78 39 172q0 65 -19.5 108t-51.5 43q-13 0 -22 -5t-16 -5q-23 0 -23 33q0 61 83 144t154 83q55 0 84.5 -58.5t29.5 -141.5q0 -93 -62.5 -208t-128.5 -194q38 -21 60.5 -35t56.5 -42.5t53 -57.5t34 -73t15 -96q0 -117 -48.5 -229.5t-122 -190t-160 -125 t-161.5 -47.5q-86 0 -146 72.5t-60 183.5q0 87 25.5 162.5t54.5 116t79.5 102.5t71.5 92q-28 16 -50 31t-52.5 42.5t-50.5 57t-34.5 72.5t-14.5 90z" />
<glyph unicode="9" horiz-adv-x="904" d="M439 760q12 0 27.5 8t22.5 8q24 0 24 -35t-26 -78q-52 -56 -102 -90t-108 -34q-46 0 -84 40.5t-60 102t-33.5 125.5t-11.5 119q0 175 42 303t136.5 204t233.5 76q84 0 156 -83.5t111 -208.5t39 -254q0 -549 -414 -903l-20 -18q-23 -24 -50 -24q-24 0 -40.5 19.5 t-16.5 49.5q0 12 3.5 25t7 21t12 21t11.5 17t14 16.5t12 13.5l49 56l61 69q23 28 57 77.5t54 92.5t35 101t15 116q0 127 -28.5 254t-84 216.5t-122.5 89.5q-40 0 -59 -42.5t-19 -92.5q0 -67 20 -154t57.5 -155.5t78.5 -68.5z" />
<glyph unicode=":" horiz-adv-x="414" d="M114 907q0 78 35 140.5t82 62.5q36 0 59 -40t23 -99q0 -79 -36 -141t-82 -62q-37 0 -59 38.5t-22 100.5zM114 154q0 79 35.5 141t82.5 62q36 0 59 -40t23 -99q0 -79 -35.5 -141t-82.5 -62q-36 0 -59 40t-23 99z" />
<glyph unicode=";" horiz-adv-x="464" d="M116 925q0 79 35.5 141t82.5 62q36 0 59 -40t23 -99q0 -79 -36 -141t-82 -62q-37 0 -59.5 40t-22.5 99zM255 318q26 0 44 -17q22 -36 31.5 -53t19.5 -50t10 -68q0 -36 -8 -68.5t-18.5 -52.5t-24 -37t-20 -23t-11.5 -9q-112 -90 -149 -90q-4 0 -5 1q-12 4 -20 25t-8 43 q0 27 15 37l20 6q41 15 51 70q0 1 2 3t2 3v29q0 44 -34 117l-14 29q-2 8 -2 11q0 30 41.5 62t77.5 32z" />
<glyph unicode="&#x3c;" horiz-adv-x="953" d="M315 834l534 -355q14 -9 22 -48.5t8 -85.5q0 -90 -23 -90h-7l-699 471q-21 16 -21 103q0 98 25 114l698 469q4 2 7 2q23 0 23 -91q0 -46 -8 -85.5t-22 -47.5z" />
<glyph unicode="=" horiz-adv-x="1005" d="M160 381q-23 0 -36.5 37t-13.5 87t13.5 87t36.5 37h695q24 0 37 -36.5t13 -87.5t-13 -87.5t-37 -36.5h-695zM156 833q-23 0 -36.5 37t-13.5 87t13.5 86.5t36.5 36.5h695q24 0 37 -36.5t13 -86.5q0 -51 -13 -87.5t-37 -36.5h-695z" />
<glyph unicode="&#x3e;" horiz-adv-x="953" d="M712 776l-537 356q-14 8 -22 47.5t-8 85.5q0 91 23 91q3 0 7 -2l698 -469q25 -16 25 -114q0 -87 -21 -103l-699 -471h-7q-23 0 -23 90q0 46 8 85.5t22 48.5z" />
<glyph unicode="?" horiz-adv-x="902" d="M286 142q0 79 35.5 141t82.5 62q36 0 59 -40t23 -99q0 -79 -35.5 -141t-82.5 -62q-36 0 -59 40t-23 99zM364 1445q-47 0 -79 -16.5t-44 -35.5t-24.5 -35.5t-25.5 -16.5q-16 0 -30.5 12.5t-14.5 30.5q0 11 7 24l14 26q33 58 58 94t60 72.5t76 54t91 17.5q91 0 170 -56 t129.5 -166.5t50.5 -254.5q0 -83 -17.5 -149.5t-45.5 -109.5t-65.5 -88.5t-73.5 -83.5t-74.5 -98t-63.5 -128l-12 -33q-7 -16 -17 -16q-14 0 -28.5 26t-14.5 52q0 11 3 20l8 21q21 62 56 114t61.5 81t46.5 77t20 110q0 199 -64.5 327t-156.5 128z" />
<glyph unicode="@" horiz-adv-x="1298" d="M491 719q0 -85 30.5 -143.5t83.5 -58.5q49 0 89 53.5t60.5 131t20.5 157.5q0 85 -29 139t-76 54q-75 0 -127 -98.5t-52 -234.5zM687 146q76 0 133.5 19.5t89.5 47.5t56 56t48 47.5t50 19.5q23 0 40 -14.5t17 -33.5q0 -9 -4 -17l-24 -43q-27 -48 -65 -92.5t-89 -84.5 t-119 -64t-141 -24q-250 0 -414 241q-165 239 -165 601q0 233 77.5 427.5t208.5 305t285 110.5q107 0 201.5 -42.5t167.5 -123.5t115.5 -210t42.5 -290q0 -330 -129 -502q-128 -173 -258 -173q-32 0 -58 29t-26 93q-31 -49 -72 -85.5t-84 -36.5q-93 0 -159 112t-66 272 q0 154 41.5 285.5t113.5 208t157 76.5q112 0 167 -148l17 67q17 67 64 67q22 0 38.5 -16.5t16.5 -40.5v-10l-97 -621q0 -55 38 -55q64 0 120.5 110.5t56.5 296.5q0 262 -111.5 407.5t-297.5 145.5q-103 0 -186.5 -52t-137 -142.5t-82 -210.5t-28.5 -258q0 -297 122 -476 t329 -179z" />
<glyph unicode="A" horiz-adv-x="1384" d="M541 1420q-39 0 -110 -58q25 61 113.5 168.5t129.5 107.5q57 0 100 -47.5t72.5 -133.5t53.5 -193l52 -240q28 -132 59.5 -259.5t83 -265t116.5 -244.5q6 -1 16 -1q25 0 46 10.5t52.5 37t38.5 31.5q-28 -83 -124.5 -208t-136.5 -125q-36 0 -51 13t-57 74 q-93 223 -186.5 566t-129.5 591q0 -167 -130.5 -444.5t-349.5 -555.5q19 -9 60 -9q31 0 103.5 8.5t103.5 8.5q65 0 81 -28l-120 -224q-38 25 -106 25q-34 0 -142.5 -12.5t-183.5 -12.5q0 57 23.5 117t61.5 113l88 120l100 138q51 69 100 165.5t87.5 203t62 252.5t23.5 311z " />
<glyph unicode="B" horiz-adv-x="1313" d="M510 774q0 -97 -2.5 -280.5t-2.5 -284.5q46 0 139 -10.5t143 -10.5q125 0 242 52q66 136 66 255q0 51 -13 98.5t-32 85.5t-52 77.5t-62 67t-74 61t-76 53.5l-77 51q-16 -18 -57 -68.5t-75 -87t-67 -59.5zM438 1596q83 51 148.5 79.5t124.5 28.5q112 0 179 -52t67 -116 q0 -136 -127 -311q86 -34 165.5 -91t146.5 -134t107.5 -180t40.5 -214q0 -121 -66 -235.5t-166 -194t-218.5 -128t-224.5 -48.5q-60 0 -168 9.5t-163 9.5q-117 0 -224 -31l135 174q54 26 98 38q48 344 48 762q0 74 -7 239.5t-7 245.5q-144 -56 -215 -119q19 29 49 55.5 t88.5 70t80.5 61.5v66l129 128zM450 1479q0 -101 28.5 -303t28.5 -303l63 88l64 89l49.5 76.5t45.5 81.5t24.5 69t11.5 73q0 67 -51 111.5t-123 44.5q-33 -1 -79.5 -13t-61.5 -14z" />
<glyph unicode="C" horiz-adv-x="1246" d="M976 1149q-4 330 -306 330q-89 0 -164.5 -67t-123 -173t-73.5 -230.5t-26 -246.5q0 -86 19.5 -169.5t59 -156t93.5 -128t127.5 -87.5t156.5 -32q62 0 113.5 16t97.5 51.5t80 71.5t84 98l57 36q-33 -75 -97.5 -156t-145 -149.5t-178 -112.5t-185.5 -44q-85 0 -161.5 31 t-133.5 86t-99.5 126.5t-64 155.5t-21.5 171q0 124 33 256.5t88.5 250t131.5 223t158.5 182t173.5 121t173 44.5h13q54 -1 93.5 -7t80 -24.5t66.5 -50t43 -84t20 -125.5z" />
<glyph unicode="D" horiz-adv-x="1403" d="M554 -19q-60 0 -142.5 9.5t-137.5 9.5q-117 0 -224 -31l135 174q54 26 98 38q48 344 48 762q0 74 -7 239.5t-7 245.5q-144 -56 -215 -119q19 29 49 55.5t88.5 70t80.5 61.5v66l129 128l-21 -113q52 20 152 31.5t177 11.5q76 0 157.5 -45.5t153 -127t129 -186t91 -233.5 t33.5 -257q0 -59 -14 -128t-44 -145.5t-73.5 -149.5t-107.5 -140t-140 -117t-176 -80t-212 -30zM440 1460q0 -101 28 -625.5t28 -624.5q95 -36 234 -36q45 0 126 4.5t114 4.5q61 74 108.5 196t47.5 245q0 183 -40.5 332.5t-122 263.5t-215 177t-308.5 63z" />
<glyph unicode="E" horiz-adv-x="1208" d="M444 1642q52 0 158 -31t186 -31q121 0 275 55l-120 -186q-86 -39 -171 -39q-62 0 -167.5 28.5t-158.5 29.5q6 -298 14 -472q28 -4 76 -21.5t93 -17.5q80 0 239 44l-120 -186q-103 -25 -151 -25q-29 0 -67.5 11t-59.5 14q25 -558 25 -602q27 -4 81 -14.5t105.5 -17.5 t104.5 -7q152 0 328 63l-120 -186q-100 -46 -220 -46q-68 0 -183 18.5t-160 19.5q-66 0 -110.5 -5.5t-65 -11t-76.5 -27t-94 -34.5l106 188q30 23 93 42q4 27 7.5 60t6.5 77l4 80q2 35 4.5 95.5t3.5 96.5t3.5 110.5t3.5 111.5q-30 0 -58 -13t-91 -56q63 129 106 188 q38 28 55 36q5 205 5 362v76v35q-25 -5 -50.5 -13.5t-71.5 -25.5t-79 -28l106 188q33 26 88 36l-2 9l129 128q-8 -47 -10 -106z" />
<glyph unicode="F" horiz-adv-x="1068" d="M724 158q-81 -114 -150 -189q-27 -37 -104 -37q-52 0 -109.5 15.5t-86.5 33.5q-16 10 -36 25l-32 21q-10 7 -23 12.5t-25 5.5q-35 -4 -41 -7t-70 -50l200 218q6 6 42 6q8 58 15 240.5t13.5 446.5t8.5 334q-17 0 -33.5 -10.5t-49.5 -38t-64 -48.5q31 44 68 108 q65 47 87 58q3 123 3 353v76v35q-25 -5 -50.5 -13.5t-71.5 -25.5t-79 -28l127 201q3 3 10 8l9 8q3 2 9 5.5t10 4.5l11 4q6 3 14 4l-3 9l34 115q1 -3 3 -26t5 -45t6 -29q52 0 206.5 -26.5t234.5 -26.5h8q30 0 97 14t117 27t53 14l-120 -186l-61 -27q-21 -9 -50 -16.5 t-53 -7.5q-63 0 -206.5 21t-195.5 22q1 -45 19 -180t23 -238l38 26q25 18 34.5 24t29 17t33.5 14.5t34.5 7t44.5 3.5q45 -6 107.5 -39t108.5 -33q28 0 49.5 11t47.5 31t45 30l-102 -164q-3 -2 -16 -9t-16 -8.5t-14.5 -8t-15.5 -8t-14 -6.5t-15.5 -6.5t-14 -4.5t-15 -4 t-14.5 -2t-15 -1q-46 0 -92 32q-16 11 -58 27.5t-82 16.5q-47 0 -74 -26l35 -1119q21 -21 49 -33.5t45 -12.5q59 0 138 55z" />
<glyph unicode="G" horiz-adv-x="1429" d="M1247 436q0 69 -53.5 134t-138 104.5t-172.5 39.5q-44 0 -77.5 -19.5t-72 -54.5t-68.5 -52l184 278q24 7 58 21t61.5 21.5t60.5 7.5q74 0 142.5 -19.5t124 -56t88.5 -95.5t33 -131q0 -106 -60.5 -205t-156 -171.5t-210 -127.5t-227 -82.5t-202.5 -27.5q-44 0 -106.5 30.5 t-127 87t-120 126t-91 156.5t-35.5 170q0 150 40 307t113 293t166.5 244t208 170.5t230.5 62.5h13q68 0 117 -11t94 -40.5t68.5 -89.5t23.5 -150l-183 -207q0 330 -306 330q-89 0 -164.5 -67t-123 -173t-73.5 -230.5t-26 -246.5q0 -101 54 -209t128.5 -185.5t150.5 -128 t123 -50.5q49 0 98.5 4t110 13t112.5 27.5t96 44t69.5 66.5t25.5 92z" />
<glyph unicode="H" horiz-adv-x="1801" d="M518 212l20 -10l22 -10q7 -4 18.5 -8t22.5 -6t23 -2q57 0 130 38l-204 -258q-108 1 -192 44q-10 5 -77 46q-57 34 -96 34q-51 0 -121 -49l210 249q10 0 19 -1q10 151 57 633q-111 -34 -162 -52l98 224q21 16 82 36q11 135 11 238q0 84 -9 146q-15 12 -32 12 q-34 0 -102.5 -63t-85.5 -73q19 24 58 78l68 92q29 38 66.5 81t74 70t69.5 35q40 0 40 -396q0 -118 -1 -179q145 27 191 27h2h31q90 0 247 -19t235 -19q19 104 51 210l288 304q30 13 70 13q55 0 174 -47l-196 -198q-43 39 -92 39q-33 0 -64 -19q-40 -142 -62 -296 q46 9 158 48l-124 -248q-52 -20 -54 -20q-3 -68 -3 -134q0 -241 45 -558q37 -62 78 -62q30 0 65 30t75.5 75.5t65.5 64.5q-16 -32 -26.5 -50.5t-37.5 -62.5t-49.5 -73t-58.5 -67.5t-70.5 -62t-79.5 -40t-90 -16.5q-40 0 -65 126l-15 82q-24 316 -24 486q0 138 11 259 q-89 4 -253 27t-214 24q-83 0 -212 -28q-6 -342 -6 -522q0 -80 2 -222z" />
<glyph unicode="I" horiz-adv-x="788" d="M470 185q58 -29 90 -29q57 0 130 38l-204 -258q-59 1 -103.5 12.5t-70.5 28.5t-46.5 33.5t-43 28t-49.5 11.5q-50 0 -121 -50l235 264q6 128 32 471.5t26 504.5q0 84 -9 146q-15 12 -32 12q-34 0 -102.5 -63t-85.5 -73q34 38 91.5 131.5t109 153t107.5 67.5q40 0 40 -396 q0 -122 1 -352t1 -390q0 -170 4 -291z" />
<glyph unicode="J" horiz-adv-x="1155" d="M773 1343q0 -119 6 -416.5t6 -453.5q0 -52 2 -149.5t2 -141.5q1 0 1 -2q0 -13 -86 -94l-172 -156l-86 -74q-15 -4 -36.5 -12.5t-39 -13t-38.5 -4.5q-59 0 -107.5 12.5t-89.5 40.5t-64.5 79t-23.5 122v13q0 45 7 86.5t17 73t29.5 65t35 55.5t44 52t45.5 46l51 47l50 46 q-79 -192 -79 -310q0 -66 24 -110t71 -65.5t97.5 -29t122.5 -7.5h28q0 181 42 685t42 644q-10 3 -45 14.5t-47 14.5l-36 11q-24 7 -40 9t-30 2q-51 0 -121 -49l210 249q91 0 251 -41t211 -41q57 0 130 38l-204 -258q-83 0 -180 23z" />
<glyph unicode="K" horiz-adv-x="1594" d="M467 784q1 -91 1 -308q0 -170 4 -291q58 -29 90 -29q57 0 130 38l-204 -258q-59 1 -103.5 12.5t-70.5 28.5t-46.5 33.5t-43 28t-49.5 11.5q-50 0 -121 -50l235 264q6 134 35 502t29 528q0 84 -9 146q-15 12 -32 12q-34 0 -102.5 -63t-85.5 -73q34 38 91.5 131.5t109 153 t107.5 67.5q40 0 40 -396q0 -56 -2.5 -181t-2.5 -177v-26l101 72l86 64q37 27 90 70l77 62q23 18 82 69l71 61l78 67q66 58 70 62q-70 45 -113 45q-51 0 -121 -49l210 249q57 0 109.5 -16t85.5 -36t75 -36t80 -16q57 0 130 38l-204 -258q-114 1 -206 52q-196 -241 -394 -390 q96 -214 248 -451t232 -289q20 -17 46 -17q30 0 68 24.5t66 53.5l64 67q35 39 50 52l14 -16q-38 -42 -98 -124l-104 -142q-44 -60 -95.5 -108t-88.5 -48t-94.5 56t-127.5 156l-135 200l-144 226l-127 196z" />
<glyph unicode="L" horiz-adv-x="1172" d="M472 284q47 0 175.5 -34t224.5 -34q136 0 283 53l-118 -221q-81 -32 -180 -32q-76 0 -207 26t-183 27q-38 0 -68.5 -1t-62.5 -6t-48 -7t-52.5 -13l-46.5 -14l-59 -20l-62 -22l104 223q45 35 104 49l67 1318q0 84 -9 146q-15 12 -32 12q-34 0 -102.5 -63t-85.5 -73 q34 38 91.5 131.5t109 153t107.5 67.5q40 0 40 -396q0 -122 1 -352t1 -390q0 -285 8 -528z" />
<glyph unicode="M" horiz-adv-x="2133" d="M1112 454q48 -115 99 -199q6 -1 16 -1q25 0 46 10.5t52.5 37t38.5 31.5q-28 -83 -124.5 -208t-136.5 -125q-36 0 -51 13t-57 74q-93 223 -186.5 566t-129.5 591q0 -167 -130.5 -444.5t-349.5 -555.5q19 -9 60 -9q31 0 103.5 8.5t103.5 8.5q65 0 81 -28l-120 -224 q-38 25 -106 25q-34 0 -142.5 -12.5t-183.5 -12.5q0 57 23.5 117t61.5 113l88 120l100 138q51 69 100 165.5t87.5 203t62 252.5t23.5 311q-39 0 -110 -58q25 61 113.5 168.5t129.5 107.5q65 0 112 -61t79 -176.5t57.5 -240t65 -296.5t84.5 -302q212 368 212 840 q-39 0 -110 -58q24 61 113 167.5t130 106.5q57 0 100 -47.5t72.5 -133t53.5 -193.5l52 -238q28 -132 59.5 -259.5t83 -265t116.5 -244.5q6 -1 16 -1q25 0 46 10.5t52.5 37t38.5 31.5q-28 -83 -124.5 -208t-136.5 -125q-36 0 -51 13t-57 74q-93 223 -186.5 566t-129.5 591 q0 -130 -83.5 -341t-226.5 -431z" />
<glyph unicode="N" horiz-adv-x="1590" d="M1175 458q11 0 40.5 160.5t57 399t27.5 407.5q0 20 -13 20q-14 0 -64 -34.5t-70 -42.5q27 31 80 105t91.5 121t54.5 47q13 0 13 -36q0 -225 -18 -549t-36 -536l-18 -211q6 -13 11 -22.5t9 -15t6 -7.5t6 -5t5 -4q6 -1 16 -1q25 0 46 10.5t52.5 37t38.5 31.5 q-28 -83 -124.5 -208t-136.5 -125q-48 0 -87.5 16.5t-74.5 67.5q-65 96 -147 272t-154 348l-142 334q-72 161 -138 261.5t-116 100.5q-7 -53 -7 -121q0 -102 17.5 -247t39 -270.5t39 -287.5t17.5 -293q55 -25 81 -25q61 0 135 51q0 -5 -30 -51.5t-77.5 -110.5t-84.5 -104 q-54 0 -142 22.5t-129 48.5l-37 24l-30 22q-11 7 -24 12.5t-25 5.5q-35 -4 -41 -7t-70 -50l216 240q10 10 35 10q8 0 21 -6t20 -7q0 146 -17 419.5t-17 385.5q0 253 60 376q-9 3 -17 3q-26 0 -52 -26q-14 0 -27.5 -13.5t-29 -35t-27.5 -31.5q9 45 47 115t86.5 125.5 t79.5 55.5h4q70 0 134.5 -36.5t121.5 -107t107 -154t103 -198.5l96 -217l103 -233q58 -131 106 -226z" />
<glyph unicode="O" horiz-adv-x="1351" d="M1254 921q0 -103 -82 -322q-93 -244 -212 -407q-145 -202 -285 -202q-201 0 -353 200q-116 152 -187 399q-57 190 -57 307q0 254 184 505q201 275 446 275h3q187 0 325 -156q106 -121 169 -324q49 -156 49 -275zM1079 720q0 237 -134 470q-158 274 -398 274h-3 q-172 0 -239 -120q-50 -91 -52 -273q0 -135 62 -326q71 -221 186 -358q141 -168 315 -168q146 0 217 215q46 138 46 286z" />
<glyph unicode="P" horiz-adv-x="1002" d="M459 1461q5 -81 5 -243q0 -144 2 -480q4 0 33.5 34t71.5 93t83 128t69.5 150.5t28.5 148.5q0 92 -41 163t-118 71q-26 0 -59 -14.5t-54 -29.5t-21 -21zM466 665v-189q0 -170 4 -291q58 -29 90 -29q57 0 130 38l-204 -258q-59 1 -103.5 12.5t-70.5 28.5t-46.5 33.5t-43 28 t-49.5 11.5q-50 0 -121 -50l235 264q6 128 32 471.5t26 504.5q0 84 -9 146q-15 12 -32 12q-34 0 -102.5 -63t-85.5 -73q34 38 91.5 131.5t109 153t107.5 67.5q22 0 31 -97q2 0 22.5 21t53.5 51.5t72.5 60.5t87.5 51t89 21q79 0 124.5 -70t45.5 -162q0 -104 -50 -226 t-121 -223t-142 -186t-121 -136.5t-50 -53.5z" />
<glyph unicode="Q" horiz-adv-x="1628" d="M899 116q-114 -126 -224 -126q-201 0 -353 200q-116 152 -187 399q-57 190 -57 307q0 254 184 505q201 275 446 275h3q187 0 325 -156q106 -121 169 -324q49 -156 49 -275q0 -103 -82 -322q-57 -150 -121 -263q-3 -4 -3 -11q0 -29 53.5 -73.5t135 -79t148.5 -34.5 q16 0 34.5 9.5t42 31t40.5 39.5l50 54l49 52q-27 -56 -73 -122t-100 -126t-112.5 -100t-102.5 -40q-38 1 -69.5 8t-51.5 13.5t-49.5 28.5t-41.5 32.5t-49 46.5zM1079 720q0 237 -134 470q-158 274 -398 274h-3q-172 0 -239 -120q-50 -91 -52 -273q0 -135 62 -326 q71 -221 186 -358q141 -168 315 -168q146 0 217 215q46 138 46 286z" />
<glyph unicode="R" horiz-adv-x="1546" d="M459 1461q5 -81 5 -243q0 -144 2 -480q4 0 33.5 34t71.5 93t83 128t69.5 150.5t28.5 148.5q0 92 -41 163t-118 71q-26 0 -59 -14.5t-54 -29.5t-21 -21zM466 665v-189q0 -170 4 -291q58 -29 90 -29q57 0 130 38l-204 -258q-59 1 -103.5 12.5t-70.5 28.5t-46.5 33.5t-43 28 t-49.5 11.5q-50 0 -121 -50l235 264q6 128 32 471.5t26 504.5q0 84 -9 146q-15 12 -32 12q-34 0 -102.5 -63t-85.5 -73q34 38 91.5 131.5t109 153t107.5 67.5q22 0 31 -97q2 0 22.5 21t53.5 51.5t72.5 60.5t87.5 51t89 21q79 0 124.5 -70t45.5 -162q0 -259 -303 -624 q60 -55 126 -134t118 -152l109 -148q58 -75 105.5 -130.5t99.5 -92t99 -39.5q35 0 66.5 13t51.5 29l52 41q31 24 58 39l6 -8q-13 -12 -47 -54.5t-70 -81.5t-83 -81t-104 -67.5t-114 -25.5q-38 3 -110.5 75.5t-151.5 174.5l-156 202q-77 102 -140 172.5t-87 70.5q-5 0 -9 -4z " />
<glyph unicode="S" horiz-adv-x="977" d="M644 96q1 1 17 15l27 25q12 10 30 28t29.5 32t20 29.5t8.5 26.5q0 87 -37 165.5t-96.5 137.5t-130.5 115l-144 106q-71 52 -130.5 103.5t-96.5 114.5t-37 131q2 77 74 184t165 195.5t180.5 153t123.5 67.5q84 0 130.5 -76t46.5 -176q0 -52 -20 -98t-46 -76l-63 -76 q-37 -46 -60 -86l-15 21q35 50 35 128q0 92 -46.5 166t-123.5 75q-80 -53 -148 -132t-89 -147q1 -28 40 -72.5t100 -95.5l134 -112l146 -126q74 -67 134.5 -132.5t98 -137t37.5 -134.5q-3 -36 -35.5 -94.5t-101.5 -148.5l-113 -144l-134 -162q-176 57 -254 70q-51 8 -96 8 q-140 0 -235 -84q35 39 100 132.5t114.5 139.5t106.5 49q74 -10 180.5 -54t173.5 -54z" />
<glyph unicode="T" horiz-adv-x="1155" d="M635 1423q0 -119 18 -492t18 -533q0 -170 4 -291q58 -29 90 -29q57 0 130 38l-204 -258q-59 1 -103.5 12.5t-70.5 28.5t-46.5 33.5t-43 28t-49.5 11.5q-50 0 -121 -50l235 264q5 107 21.5 393t27 506.5t10.5 348.5q-36 4 -117.5 20.5t-109.5 17.5h-13q-67 0 -135 -24 t-171 -74l98 230q46 35 117 50t119 15q12 0 12 -3q40 0 184 -21t246 -21q81 0 206.5 24.5t224.5 59.5l-112 -228q-59 -23 -165.5 -42.5t-177.5 -19.5q-57 0 -122 5z" />
<glyph unicode="U" horiz-adv-x="1689" d="M323 1233q0 65 -17 112.5t-45 72t-56.5 35.5t-58.5 11t-58 -28q-14 0 -27.5 -13.5t-29 -35t-27.5 -31.5q15 73 91 185.5t122 112.5h4q35 0 69.5 -5.5t76 -22.5t73 -44.5t52.5 -76.5t21 -113q0 -156 33.5 -341t92 -354.5t151 -283t196.5 -113.5q138 271 192.5 544 t54.5 620q-49 29 -87 29q-51 0 -121 -49l208 249q57 0 110 -16t86 -35t75.5 -35t80.5 -16q61 0 130 36l-204 -258q-18 0 -125 23q0 -149 -24 -317.5t-61.5 -310t-79 -259t-80 -184.5t-62.5 -67q-3 0 -7 2q12 -12 16 -12q25 0 46 10.5t52.5 37t38.5 31.5q-28 -83 -124.5 -208 t-136.5 -125q-83 0 -167.5 64t-153.5 169t-129.5 238.5t-102 271.5t-65 269t-23.5 231z" />
<glyph unicode="V" horiz-adv-x="1682" d="M1065 256q12 -12 16 -12q25 0 46 10.5t52.5 37t38.5 31.5q-28 -83 -124.5 -208t-136.5 -125q-36 0 -51 13t-57 74q-72 173 -300 669.5t-244 533.5q-92 184 -166 184q-30 0 -58 -28q-14 0 -27.5 -13.5t-29 -35t-27.5 -31.5q15 73 91 185.5t122 112.5h4q64 0 132 -62.5 t127.5 -160.5t130.5 -241.5t131 -279.5l139 -302q79 -166 145 -284l57 214l44 170q34 134 40.5 171t26.5 137t24 154l9 134q6 79 6 160q-49 29 -87 29q-51 0 -121 -49l210 249q57 0 109.5 -16t85.5 -35t75 -35t80 -16q61 0 130 36l-204 -258q-18 0 -125 23 q-180 -739 -307 -1138q-3 0 -7 2z" />
<glyph unicode="W" horiz-adv-x="2582" d="M1360 972q-10 -54 -22.5 -106.5t-24 -95t-28.5 -90.5l-29 -78q-12 -32 -32 -74l-32 -65q-10 -22 -32 -61l-30 -54l-31 -50.5t-27 -44.5q-3 0 -7 2q12 -12 16 -12q25 0 46 10.5t52.5 37t38.5 31.5q-28 -83 -124.5 -208t-136.5 -125q-36 0 -51 13t-57 74 q-72 173 -300 669.5t-244 533.5q-92 184 -166 184q-30 0 -58 -28q-14 0 -27.5 -13.5t-29 -35t-27.5 -31.5q15 73 91 185.5t122 112.5h4q64 0 132 -62.5t127.5 -160.5t130.5 -241.5t131 -279.5l139 -302q79 -166 145 -284q130 255 173.5 428.5t50.5 448.5l-38 85 q-92 184 -166 184q-30 0 -58 -28q-14 0 -27.5 -13.5t-29 -35t-27.5 -31.5q15 73 91 185.5t122 112.5h4q64 0 132 -62.5t127.5 -160.5t130.5 -241.5t131 -279.5l139 -302q79 -166 145 -284q47 92 81.5 182t56.5 186.5t35.5 176t20 192t9 190.5t4.5 213q-49 29 -87 29 q-51 0 -121 -49l210 249q57 0 109.5 -16t85.5 -36t75 -36t80 -16q57 0 130 38l-204 -258q-18 0 -125 23q-10 -150 -37.5 -317.5t-63 -309.5t-74 -259.5t-74 -184.5t-58.5 -67q-3 0 -7 2q12 -12 16 -12q25 0 46 10.5t52.5 37t38.5 31.5q-28 -83 -124.5 -208t-136.5 -125 q-36 0 -51 13t-57 74z" />
<glyph unicode="X" horiz-adv-x="1641" d="M990 860q22 -47 78.5 -178.5t100 -222.5t87.5 -163l18 -28l20 -27l7 -11q12 -12 16 -12q25 0 46 10.5t52.5 37t38.5 31.5q-28 -83 -124.5 -208t-136.5 -125q-36 0 -51 13t-57 74q-27 46 -63 118l-64 133l-74 166l-75 164q-170 -198 -374 -375l49 -24q15 -7 43 -15t53 -8 q57 0 130 38l-204 -258q-72 1 -132 20.5t-93 42.5t-70.5 42t-69.5 19q-51 0 -121 -49l210 249q83 0 171 -40q45 25 154.5 142t231.5 272q-144 404 -246 566q-92 184 -166 184q-30 0 -58 -28q-14 0 -27.5 -13.5t-29 -35t-27.5 -31.5q15 73 91 185.5t122 112.5h4q37 0 75 -20 t72 -52t73 -86.5t71 -108.5t73 -135l72 -148l76 -163q131 182 189.5 286.5t92.5 216.5q-25 14 -81.5 35t-76.5 21q-51 0 -121 -49l210 249q57 0 109.5 -16t85.5 -36t75 -36t80 -16q57 0 130 38l-204 -258q-63 1 -76.5 3t-46.5 18q-32 -62 -62 -114.5t-69 -109.5l-59 -87 l-74 -101z" />
<glyph unicode="Y" horiz-adv-x="1706" d="M1345 1369q-28 -75 -62 -131.5t-94 -127.5q-50 -60 -242 -252q29 -10 52 -10q37 0 87 47q-38 -89 -209 -211v-5q0 -147 80 -544q31 -11 65 -11q57 0 130 38l-204 -258q-72 1 -132 20.5t-93 42.5t-70.5 42t-69.5 19q-51 0 -121 -49l210 249q34 0 73 -7q-1 9 -1 31 q0 53 19 193.5t19 193.5v11v11v9q-67 38 -175 237q-151 278 -197 344q-123 174 -237 174q-62 0 -178 -98l155 170q137 131 201 131q57 0 112.5 -42t119.5 -126q17 -22 85 -159.5t140 -269t108 -157.5q141 177 179 234q75 112 134 289l10 31q-51 30 -88 30q-51 0 -121 -49 l210 249q57 0 109.5 -16t85.5 -36t75 -36t80 -16q59 0 130 37l-204 -257q-93 1 -171 35z" />
<glyph unicode="Z" horiz-adv-x="1714" d="M1019 -49q-111 0 -364 54t-363 54h-2q-87 0 -180 -108q158 425 432 782q196 255 606 651l-125 -61q-59 -23 -125 -23q-63 0 -143 21t-144 46t-141 46t-135 21q-42 0 -87 -22t-89.5 -53t-61.5 -39l183 204q114 108 238 108h3q104 0 351.5 -47t359.5 -47q226 0 362 100 q-98 -99 -234 -223l-244 -216q-107 -92 -231.5 -215t-220.5 -236t-187 -261t-152 -307q71 78 155 78q105 0 352.5 -53t354.5 -53q299 0 508 137q-196 -202 -295 -258q-143 -80 -381 -80z" />
<glyph unicode="[" horiz-adv-x="527" d="M430 -403h-252q-22 0 -40.5 20t-18.5 47v1923q0 29 13 51t28 22h260q26 0 26 -69q0 -28 -7 -49t-19 -21h-127v-1784h137q12 0 19 -20.5t7 -47.5q0 -28 -7.5 -50t-18.5 -22z" />
<glyph unicode="\" horiz-adv-x="973" d="M57 1545q0 44 30 84.5t63 40.5q27 0 41 -31l673 -1462q9 -18 9 -41q0 -47 -31 -86t-62 -39q-27 0 -41 31l-673 1462q-9 20 -9 41z" />
<glyph unicode="]" horiz-adv-x="527" d="M145 -403q-11 0 -18.5 22t-7.5 50q0 27 7 47.5t19 20.5h137v1784h-127q-12 0 -19 21t-7 49q0 69 26 69h260q15 0 28 -22t13 -51v-1923q0 -27 -18.5 -47t-40.5 -20h-252z" />
<glyph unicode="^" horiz-adv-x="742" d="M648 981q2 -6 2 -10q0 -18 -17 -27.5t-43 -9.5q-30 0 -56 12.5t-32 34.5l-123 404l-124 -405q-7 -22 -32 -34t-55 -12q-26 0 -43 9t-17 26v11l205 611q11 39 62 39q57 0 71 -39z" />
<glyph unicode="_" horiz-adv-x="1026" d="M144 -260q-24 0 -38 23t-14 53q0 32 14 56t38 24h1110q25 0 38.5 -23t13.5 -55q0 -31 -13.5 -54.5t-38.5 -23.5h-1110z" />
<glyph unicode="`" horiz-adv-x="508" d="M388 1353q4 -5 4 -12q0 -18 -20.5 -33t-41.5 -15q-9 0 -17 5l-218 186q-12 9 -12 26q0 35 39.5 75t72.5 40q20 0 28 -11z" />
<glyph unicode="a" horiz-adv-x="1362" d="M515 1137q-39 0 -110 -47q25 49 113.5 135t129.5 86q57 0 100 -38t72.5 -106.5t53.5 -154.5l52 -192q28 -106 59.5 -207.5t83 -211.5t116.5 -196q6 -1 16 -1q25 0 46.5 8.5t52 29t38.5 25.5q-28 -69 -115.5 -168t-126.5 -99q-40 0 -64.5 13t-62.5 57 q-93 179 -186.5 453.5t-129.5 472.5q0 -134 -130.5 -356t-349.5 -444q18 -7 60 -7q31 0 103.5 6.5t103.5 6.5q65 0 81 -22l-120 -180q-41 21 -106 21q-34 0 -142.5 -10.5t-183.5 -10.5q0 41 18.5 83t50.5 81.5t72 82.5l86 93q46 49 91.5 105.5t86 128.5t72.5 153t50.5 186.5 t18.5 223.5z" />
<glyph unicode="b" horiz-adv-x="1240" d="M459 626q0 -78 -2.5 -224.5t-2.5 -227.5q46 0 139 -8.5t143 -8.5q124 0 242 42q66 108 66 204q0 40 -13 78.5t-32 68.5t-52 61.5t-62 54t-74 49.5t-75 43l-78 40q-16 -14 -57 -55t-75 -69.5t-67 -47.5zM387 1284q176 86 273 86q112 0 179 -41.5t67 -92.5 q0 -110 -127 -249q86 -28 165 -73.5t146.5 -107t108 -143.5t40.5 -171q0 -97 -66 -189t-166 -155.5t-218.5 -102t-224.5 -38.5q-60 0 -168 7.5t-163 7.5q-115 0 -224 -25l135 139q47 19 98 31q48 275 48 609q0 59 -7 191.5t-7 196.5q-143 -44 -215 -95q19 23 49.5 44.5 t87.5 56.5l81 49v53l129 102zM399 1190q0 -81 28.5 -242.5t28.5 -242.5l54 61l55 62l47 54q28 34 42.5 56t30.5 49.5t22.5 52t6.5 47.5q0 54 -51 89.5t-123 35.5q-31 0 -76 -11t-65 -11z" />
<glyph unicode="c" horiz-adv-x="1251" d="M946 921q0 264 -306 264q-90 0 -165 -51.5t-122.5 -134.5t-73.5 -184t-26 -204q0 -189 133.5 -323.5t322.5 -134.5q118 0 196 44.5t179 144.5l57 29q-32 -60 -100 -125t-152.5 -120t-185.5 -90.5t-189 -35.5q-124 0 -230 61.5t-167.5 167t-61.5 229.5q0 99 33 205 t88.5 200t131.5 178.5t158.5 145.5t173.5 97t173 36h13q53 0 94 -5t82 -20t67.5 -40t43 -68t16.5 -101z" />
<glyph unicode="d" horiz-adv-x="1290" d="M500 -12q-60 0 -142.5 7.5t-137.5 7.5q-115 0 -224 -25l135 139q47 19 98 31q48 275 48 609q0 59 -7 191.5t-7 196.5q-143 -44 -215 -95q19 23 49 44.5t88 56t81 49.5v52l129 103l-21 -91q52 16 152.5 25.5t176.5 9.5q95 0 196.5 -57.5t182.5 -149.5t133 -218t52 -254 q0 -68 -27 -148t-88.5 -166.5t-147.5 -156.5t-218 -115.5t-286 -45.5zM386 1171q0 -81 28 -500.5t28 -499.5q93 -29 234 -29q45 0 126 3.5t114 3.5q61 60 108.5 157t47.5 196q0 146 -40.5 266t-122 211t-215 141.5t-308.5 50.5z" />
<glyph unicode="e" horiz-adv-x="1197" d="M408 1320q52 0 158 -24t186 -24q117 0 275 44l-120 -148q-85 -32 -171 -32q-60 0 -165.5 23.5t-160.5 23.5q0 -32 7 -162t7 -216q34 0 80.5 -15.5t88.5 -15.5q79 0 239 35l-120 -149q-106 -20 -151 -20q-29 0 -67 8.5t-60 11.5q0 -124 12.5 -292t12.5 -189 q26 -3 80.5 -11.5t106 -14t104.5 -5.5q152 0 328 50l-120 -149q-100 -37 -220 -37q-65 0 -179.5 15.5t-163.5 15.5q-66 0 -110.5 -4.5t-65 -9t-75.5 -21.5l-95 -28l106 151q29 18 93 33q33 182 33 505q-29 0 -57.5 -10.5t-91.5 -44.5q62 102 106 150q35 22 55 29 q0 51 2.5 149t2.5 141v89q-25 -4 -51 -11l-71 -20l-79 -23l106 150q37 24 87 32l5 17l123 90q-10 -45 -10 -87z" />
<glyph unicode="f" horiz-adv-x="1114" d="M766 1010q-35 0 -103.5 30.5t-128.5 30.5q-48 0 -74 -21v-895q20 -16 63.5 -26.5t65.5 -10.5q58 0 138 44q-81 -91 -150 -151q-28 -29 -104 -29q-67 0 -122.5 14t-84.5 31t-57.5 31t-47.5 14q-35 -4 -41 -6t-70 -40l200 175q7 5 42 5q13 73 25 355t12 461q-17 0 -33.5 -8 t-49.5 -30t-64 -39q34 38 68 86q51 31 87 47q0 50 1.5 144.5t1.5 137.5v89q-25 -4 -51 -11l-71 -20l-79 -23l127 161q4 2 10.5 6.5t9 6t8 4.5t10 4t11 3t14.5 3v11l31 88q1 -3 3 -21t5 -35.5t6 -23.5q52 0 206.5 -21t234.5 -21h8q30 0 96.5 11t117.5 21.5t53 11.5l-120 -149 q-114 -41 -164 -41q-60 0 -203.5 17.5t-198.5 17.5q0 -32 21 -140.5t21 -194.5l38 22q25 14 34 18l30 14q19 9 33 12t34.5 5.5t44.5 2.5q46 -5 108.5 -31.5t107.5 -26.5q27 0 48.5 9t48 25t45.5 24l-102 -131q-4 -2 -20 -9l-20 -9q-4 -2 -17.5 -7.5t-19.5 -7.5t-17.5 -5.5 t-19 -5t-17.5 -2.5t-19 -1z" />
<glyph unicode="g" horiz-adv-x="1388" d="M1219 350q0 55 -53.5 107.5t-138 84t-172.5 31.5q-42 0 -75.5 -15.5t-73 -43.5t-69.5 -42l184 222q24 5 58.5 16.5t62 17.5t59.5 6q100 0 186.5 -26t144 -82.5t57.5 -132.5q0 -85 -61.5 -164.5t-158.5 -137.5t-213.5 -102t-230 -66.5t-203.5 -22.5q-57 0 -136 36.5 t-153.5 95.5t-127 147t-52.5 179q0 120 40 245.5t113 234.5t166.5 195.5t208 136.5t230.5 50h13q53 0 94 -5t82 -20t67.5 -40t43 -68t16.5 -101l-183 -165q0 264 -306 264q-90 0 -165 -51.5t-122.5 -134.5t-73.5 -184t-26 -204q0 -72 35.5 -144t90 -126.5t117 -98 t119.5 -66.5t94 -23q78 0 155 7.5t163.5 27t140 61.5t53.5 101z" />
<glyph unicode="h" horiz-adv-x="1847" d="M1260 -10q-29 0 -51 56t-32.5 146t-15.5 178t-5 175q0 110 11 208q-93 0 -257 20t-210 20q-86 0 -212 -22q0 -69 -3 -209t-3 -209q0 -31 1 -90t1 -87l20 -8l22 -8q6 -3 18.5 -6.5t23 -5t22.5 -1.5q56 0 130 30l-204 -206q-75 0 -135 15.5t-91.5 34t-68.5 34t-70 15.5 q-51 0 -121 -39l210 199q10 0 19 -1q0 74 9 157.5t25.5 193.5t22.5 156q-137 -35 -162 -42l98 179q19 12 82 29q11 108 11 191q0 68 -9 116q-14 10 -32 10q-34 0 -103 -50.5t-85 -58.5q17 17 72 77.5t89 94.5t84 69.5t91 43.5q40 0 40 -317q0 -21 -0.5 -69.5t-0.5 -73.5 q143 22 191 22h33q89 0 246 -15.5t236 -15.5q19 82 51 168l288 243q32 11 70 11q58 0 174 -38l-196 -158q-43 31 -92 31q-33 0 -64 -15q-40 -114 -62 -237q45 7 158 38l-124 -198q-3 -1 -23.5 -8.5t-30.5 -9.5q0 -18 -1.5 -52.5t-1.5 -52.5q0 -193 45 -447q36 -49 78 -49 q30 0 65 23.5t76 60.5t65 52q-19 -30 -33 -49l-45 -60q-32 -41 -64.5 -69t-74.5 -58t-92.5 -46t-102.5 -16z" />
<glyph unicode="i" horiz-adv-x="738" d="M411 140q55 -23 90 -23q56 0 130 30l-204 -206q-59 0 -103.5 9.5t-70.5 22.5t-46.5 26.5t-43 23t-49.5 9.5q-50 0 -121 -40l235 211q0 151 29 413t29 368q0 68 -9 117q-15 9 -32 9q-34 0 -102.5 -50t-85.5 -58q30 28 73 80l73 90q31 39 75 72.5t87 38.5q40 0 40 -317 q0 -97 1 -281t1 -312q0 -42 2 -120t2 -113z" />
<glyph unicode="j" horiz-adv-x="1193" d="M758 127q-3 -12 -88 -77l-170 -124l-85 -59q-16 -3 -37.5 -9.5t-39 -10.5t-37.5 -4q-80 0 -140.5 17t-102.5 64t-42 122v10q0 36 7 69t17 58.5t29.5 52.5t35 44t44 41.5t45.5 37.5l51 37l50 37q-79 -154 -79 -248q0 -53 24 -88t70.5 -52.5t97.5 -23.5t123 -6h28 q0 145 42 548t42 516q-15 4 -45 11l-46 12q-16 4 -38 8.5t-38.5 6.5t-30.5 2q-51 0 -121 -39l210 199q91 0 251 -32.5t211 -32.5q56 0 130 30l-204 -206q-81 0 -180 18q0 -95 6 -333t6 -363q0 -42 2 -119.5t2 -113.5z" />
<glyph unicode="k" horiz-adv-x="1613" d="M719 796q63 -113 162 -250t205 -246.5t159 -109.5q38 0 84 28t99.5 75t64.5 55l14 -13q-38 -34 -98 -99l-104 -114q-44 -48 -95.5 -86.5t-88.5 -38.5t-94.5 45t-128.5 126l-134 159l-144 181q-80 102 -127 157l-81 -40q0 -34 0.5 -115.5t0.5 -131.5q0 -42 2 -120t2 -113 q61 -23 90 -23q57 0 130 31l-204 -207q-59 0 -103.5 9.5t-70.5 23t-46.5 26.5t-43 22.5t-49.5 9.5q-49 0 -120 -40l234 212q0 150 32 433.5t32 390.5q0 68 -9 116q-14 10 -32 10q-34 0 -103 -50.5t-85 -58.5q30 28 73 80l73 91q31 39 75 72.5t87 38.5q40 0 40 -317 q0 -45 -2.5 -145t-2.5 -141v-21l86 48l86 51l74 46l76 49l68 44q22 14 70 48l64 43l68 47l63 45q-70 36 -113 36q-51 0 -121 -39l210 199q57 0 109.5 -13t85.5 -28.5t75 -28.5t80 -13q57 0 130 31l-204 -207q-112 0 -206 42q-199 -195 -394 -312z" />
<glyph unicode="l" horiz-adv-x="1193" d="M481 258q48 0 176 -27.5t224 -27.5q134 0 283 43l-118 -177q-83 -26 -180 -26q-75 0 -206 21.5t-184 21.5q-38 0 -68.5 -1t-61.5 -5l-49 -6q-17 -2 -52 -10l-47 -12q-12 -3 -58.5 -16t-62.5 -17l104 179q9 6 33 12t46 10l53 10q31 5 39 7v1054q0 67 -9 117q-14 10 -32 10 q-26 0 -56 -15t-67 -40t-58 -35q30 27 72 76l70 85q30 35 73 65.5t86 36.5q40 0 40 -317q0 -97 1 -281t1 -313q0 -42 4 -214t4 -208z" />
<glyph unicode="m" horiz-adv-x="2112" d="M1085 362q49 -94 99 -159q6 -1 16 -1q25 0 46.5 8.5t52 29t38.5 25.5q-27 -66 -124 -165.5t-137 -99.5q-37 0 -52 10.5t-56 58.5q-93 178 -186.5 452t-129.5 473q0 -134 -130.5 -356t-349.5 -444q21 -7 60 -7q31 0 103.5 7t103.5 7q65 0 81 -23l-120 -178q-37 19 -106 19 q-34 0 -142.5 -9.5t-183.5 -9.5q0 52 30 105.5t78 106.5l107 112q58 60 116 139t106.5 170.5t78.5 222t30 279.5q-38 0 -110 -46q23 46 114 123.5t133 77.5q65 0 111.5 -46.5t78 -136t56.5 -186.5t64 -232.5t84 -239.5q212 294 212 672q-39 0 -110 -47q24 49 113 134t130 85 q57 0 100 -38t72.5 -106.5t53.5 -154.5l52 -191q28 -105 59.5 -207t83 -211.5t116.5 -195.5q6 -1 16 -1q19 0 39 7t32.5 14.5t34 21.5t31.5 20q-28 -66 -124.5 -166t-136.5 -100q-37 0 -52 10.5t-56 58.5q-93 179 -186.5 453.5t-129.5 472.5q0 -104 -83.5 -273t-226.5 -345z " />
<glyph unicode="n" horiz-adv-x="1555" d="M1268 242q26 -44 48 -44h5q25 0 46 8.5t53 29.5l38 26q-27 -67 -124 -167t-137 -100q-104 0 -162 67q-65 77 -147 217.5t-154 278.5l-142 266q-72 130 -138 210.5t-116 80.5q-7 -42 -7 -97q0 -81 17.5 -197t39 -216.5t39 -230t17.5 -234.5q55 -20 81 -20q61 0 135 41 q0 -4 -31.5 -45.5t-80 -97t-85.5 -87.5q-48 0 -133.5 25t-132.5 49l-37 19l-31 18q-10 5 -23 9.5t-25 4.5q-35 -4 -41 -6t-70 -40l216 192q9 8 35 8q7 0 20.5 -4.5t20.5 -5.5q0 117 -17 335.5t-17 308.5q0 203 60 301q-12 2 -17 2q-27 0 -52 -21q-19 0 -47 -29t-37 -35 q15 59 90.5 148t122.5 89h4q81 0 157 -42.5t134.5 -107t124 -166t114.5 -193.5l118 -217q69 -125 123 -211q11 0 40.5 128.5t57 319t27.5 325.5q0 16 -13 16q-14 0 -64 -27.5t-70 -33.5q28 26 76.5 82.5t83.5 93t51 36.5q28 0 28 -23q0 -180 -18 -439t-36 -428z" />
<glyph unicode="o" horiz-adv-x="1257" d="M671 1344q83 0 156.5 -25t127 -66.5t98.5 -95.5t74 -111t49.5 -115.5t29 -106t8.5 -84.5q0 -39 -22.5 -109t-61 -153t-94.5 -168.5t-118 -155t-137 -114t-146 -44.5q-90 0 -170.5 32.5t-139 85.5t-108 121.5t-82 139t-55 139t-32.5 121t-10 85.5q0 204 184 404 q201 220 446 220h3zM776 179q68 0 121.5 40t83 102.5t44 129t14.5 129.5q0 189 -134 376q-159 219 -398 219h-3q-85 0 -143.5 -22.5t-90 -66t-44.5 -98t-13 -128.5q0 -51 16 -119t46 -144.5t79 -150.5t108.5 -134t141.5 -96.5t172 -36.5z" />
<glyph unicode="p" horiz-adv-x="995" d="M407 1172q0 -23 2.5 -88.5t2.5 -106.5q0 -70 1 -193.5t1 -190.5q4 0 33.5 27t71.5 74.5t83 102.5t69.5 120t28.5 119q0 74 -41 131t-118 57q-26 0 -59 -11.5t-54 -24t-21 -16.5zM414 535v-151q0 -42 2 -120t2 -113q55 -23 90 -23q59 0 130 30l-187 -212q-72 0 -127 15 t-81 33.5t-58 33.5t-64 15q-50 0 -121 -40l235 211q0 150 29 412.5t29 368.5q0 67 -9 117q-15 9 -32 9q-34 0 -103 -50.5t-85 -58.5q30 28 72 80l74 91q31 39 75 72.5t87 38.5q22 0 31 -78q2 0 22.5 17t53.5 41t72.5 48t87.5 41t89 17q72 0 121 -55t49 -130q0 -89 -50 -189 t-121 -179.5t-142 -145.5t-121 -105.5t-50 -40.5z" />
<glyph unicode="q" horiz-adv-x="1583" d="M671 1339q83 0 156.5 -25t127 -66.5t98.5 -95.5t74 -111t49.5 -115.5t29 -106t8.5 -84.5q0 -71 -61 -212t-142 -256q-3 -3 -3 -9q0 -23 53.5 -58.5t135 -63t148.5 -27.5q16 0 34.5 7.5t42.5 25t41 31.5l49 42l49 42q-37 -60 -109.5 -135t-159.5 -133t-145 -58 q-54 0 -94 14t-61 31t-60.5 53.5t-72.5 61.5q-115 -101 -224 -101q-90 0 -170.5 32.5t-139 85.5t-108 121.5t-82 139t-55 139.5t-32.5 121.5t-10 85.5q0 204 184 404q202 220 446 220h3zM776 173q68 0 121.5 40t83 102.5t44 129t14.5 129.5q0 189 -134 376 q-158 219 -398 219h-3q-85 0 -143.5 -22t-90 -66t-44.5 -98t-13 -128q0 -62 21.5 -146.5t69 -178.5t111.5 -173.5t159 -131.5t202 -52z" />
<glyph unicode="r" horiz-adv-x="1525" d="M407 1172q0 -23 2.5 -88.5t2.5 -106.5q0 -70 1 -193.5t1 -190.5q4 0 33.5 27t71.5 74.5t83 102.5t69.5 120t28.5 119q0 74 -41 131t-118 57q-26 0 -59 -11.5t-54 -24t-21 -16.5zM414 535v-151q0 -42 2 -120t2 -113q55 -23 90 -23q59 0 130 30l-193 -200q-72 0 -126 13.5 t-79 29t-56 29t-63 13.5q-50 0 -121 -40l235 211q0 150 29 412.5t29 368.5q0 67 -9 117q-15 9 -32 9q-34 0 -103 -50.5t-85 -58.5q30 28 72 80l74 91q31 39 75 72.5t87 38.5q22 0 31 -78q2 0 22.5 17t53.5 41t72.5 48t87.5 41t89 17q72 0 121 -55t49 -130q0 -207 -303 -499 q70 -52 149 -131.5t141 -149.5l125 -135q64 -65 125.5 -103t116.5 -38q36 0 64 4.5t52 16t37 19.5t38.5 28.5t36.5 28.5l6 -6q-11 -11 -27 -37.5t-30 -52t-44 -55t-67.5 -51.5t-102.5 -37t-147 -15q-38 0 -110.5 57.5t-151.5 138.5l-156 164q-77 81 -140 138.5t-87 57.5 q-5 0 -9 -3z" />
<glyph unicode="s" horiz-adv-x="987" d="M625 75q1 1 17 12l28 19l28 23q18 14 30 25.5t20.5 23.5t8.5 21q0 70 -37 132.5t-96.5 110t-131.5 92.5l-142 85q-72 41 -131.5 82.5t-96.5 92t-37 104.5q0 50 47 116.5t117.5 128.5t146.5 116t140 86.5t92 32.5q84 0 130.5 -61t46.5 -141q0 -42 -20 -78.5t-46 -60.5 l-63 -61q-37 -37 -60 -69l-15 17q35 41 35 103q0 74 -46.5 133t-123.5 59q-80 -42 -148 -105.5t-89 -117.5q0 -23 38 -58.5t99 -77.5l134 -88q74 -48 147.5 -101t134.5 -106t99 -110t38 -107q-3 -29 -35.5 -75.5t-101.5 -118.5l-113 -116l-134 -129q-83 22 -118.5 30.5 t-106 20t-125.5 11.5q-141 0 -235 -67q35 31 100 107t114.5 113t106.5 37q73 -8 179.5 -43t174.5 -43z" />
<glyph unicode="t" horiz-adv-x="1239" d="M607 1132q0 -98 18 -396t18 -424q0 -42 2 -120t2 -113q61 -23 90 -23q56 0 130 30l-204 -206q-59 0 -103.5 9.5t-70.5 23t-46.5 26.5t-43 22.5t-49.5 9.5q-50 0 -121 -40l235 211q0 149 29.5 520t29.5 479q-41 0 -122 15t-105 15h-13q-67 0 -134.5 -19t-171.5 -59l98 184 q46 28 117 40t119 12q12 0 12 -3q41 0 185 -16.5t245 -16.5q81 0 207 19.5t224 47.5l-112 -182q-59 -18 -165.5 -34t-177.5 -16q-21 0 -62 2t-60 2z" />
<glyph unicode="u" horiz-adv-x="1723" d="M280 992q0 52 -17 90t-45 57.5t-56.5 28t-58.5 8.5t-58 -22q-19 0 -47 -29t-37 -35q15 59 91 148.5t122 89.5h4q45 0 89 -8t93 -28.5t79.5 -65t30.5 -107.5q0 -117 52 -269t127.5 -280t167.5 -217t166 -89q70 110 113 216.5t63 225.5t25.5 218t5.5 252q-50 24 -87 24 q-50 0 -121 -40l208 200q72 0 135.5 -21t116.5 -42t100 -21q11 0 21.5 1.5t25.5 6.5l22 8l29 12.5t28 12.5l-200 -217q-19 0 -125 19q0 -148 -37 -317.5t-87 -296.5t-101.5 -212t-81.5 -85q-3 0 -7 2q13 -10 16 -10q25 0 46 8.5t53 29.5l38 26q-27 -67 -124 -167t-137 -100 q-80 0 -194 111t-211.5 265.5t-166.5 328.5t-69 290z" />
<glyph unicode="v" horiz-adv-x="1716" d="M1022 210q13 -10 16 -10q25 0 46 8.5t53 29.5l38 26q-27 -67 -124 -167t-137 -100q-36 0 -51 10.5t-57 59.5q-72 139 -301 537t-243 425q-91 147 -166 147q-30 0 -58 -22q-19 0 -47 -29t-37 -35q15 59 91 148.5t122 89.5h4q64 0 132 -50t127.5 -128.5t130.5 -193 t131 -223.5l139 -241q79 -133 145 -228q122 366 153 489q54 211 54 423q-50 24 -87 24q-50 0 -121 -40l210 200q72 0 135 -21t115.5 -42t99.5 -21q13 0 29 4.5t27.5 9t34.5 15t35 15.5l-200 -220q-19 0 -125 19q-180 -592 -307 -911q-3 0 -7 2z" />
<glyph unicode="w" horiz-adv-x="2620" d="M1317 783q-10 -43 -22.5 -85t-24 -76t-28.5 -72l-30 -63q-11 -25 -32 -59l-31 -52q-10 -17 -33 -50l-30 -42l-30 -40l-27 -36q-3 0 -7 2q10 -10 16 -10q25 0 46.5 8.5t52 29t38.5 25.5q-28 -66 -124.5 -166t-136.5 -100q-36 0 -51 10.5t-57 58.5q-72 138 -300 535.5 t-244 427.5q-92 147 -166 147q-30 0 -58 -22q-19 0 -46.5 -29t-37.5 -35q15 59 91 148.5t122 89.5h4q64 0 132 -50t127.5 -128.5t130.5 -193t131 -223.5l139 -241q79 -133 145 -228q134 210 179 349.5t45 352.5l-38 68q-92 147 -166 147q-31 0 -58 -23q-19 0 -47 -29 t-37 -35q15 59 91 149t122 90h4q64 0 132 -50t127.5 -128.5t130.5 -193t131 -223.5l139 -242q79 -132 145 -227q70 109 113 216t63 225.5t25.5 218t5.5 252.5q-51 23 -87 23q-51 0 -121 -39l208 199q72 0 135.5 -21t116.5 -41.5t100 -20.5q56 0 130 30l-204 -206 q-24 0 -125 18q0 -147 -37 -316.5t-87 -296.5t-101.5 -212t-81.5 -85q-2 0 -4 0.5t-3 0.5q12 -9 16 -9q19 0 39 7t32.5 14.5t34 21.5t31.5 20q-28 -67 -124.5 -167.5t-136.5 -100.5q-36 0 -50.5 10.5t-57.5 60.5q-196 378 -389 712z" />
<glyph unicode="x" horiz-adv-x="1668" d="M947 689q22 -38 78.5 -143t100 -178t87.5 -130q7 -9 18.5 -22t18.5 -22l8 -9q13 -10 16 -10q25 0 46.5 8.5t52 29t38.5 25.5q-28 -66 -124.5 -166t-136.5 -100q-36 0 -51 10.5t-57 59.5q-27 37 -62 94l-64 106l-75 132l-75 132q-170 -158 -374 -300q93 -37 145 -37 q56 0 130 30l-204 -206q-72 0 -132 15.5t-93 34t-70.5 34t-69.5 15.5q-51 0 -121 -39l210 199q84 0 171 -32q44 20 153.5 113.5t232.5 217.5q-144 323 -246 453q-92 147 -166 147q-30 0 -58 -22q-19 0 -46.5 -29t-37.5 -35q15 59 91 148.5t122 89.5h4q51 0 104.5 -31 t99.5 -77.5t102.5 -128t99.5 -152.5l106 -181q131 145 189.5 228.5t92.5 173.5q-25 11 -81.5 28t-76.5 17q-51 0 -121 -39l210 199q72 0 135 -21t115.5 -41.5t99.5 -20.5q56 0 130 30l-204 -206h-22q-43 0 -56 2.5t-45 14.5q-32 -50 -62 -91.5t-69 -88.5l-59 -68l-75 -82z " />
<glyph unicode="y" horiz-adv-x="1731" d="M1300 1088q-25 -53 -53 -94t-82 -92.5t-103 -93.5l-160 -128q27 -8 52 -8q38 0 87 37q-38 -71 -209 -169v-4q0 -117 80 -435q36 -9 65 -9q57 0 130 31l-204 -207q-72 0 -132 15.5t-93 34.5t-70.5 34.5t-69.5 15.5q-50 0 -121 -40l210 200q29 0 73 -6q-1 7 -1 25 q0 43 19 155t19 154v25q-39 18 -86.5 72t-90 120t-95 139.5t-102 133.5t-112 99.5t-123.5 39.5q-63 0 -178 -78l155 136q138 105 201 105q105 0 232 -135q17 -17 85 -127t140 -215.5t108 -126.5q142 142 179 188q75 90 134 231l10 25q-54 24 -88 24q-50 0 -121 -40l210 200 q72 0 135 -21t115.5 -42t99.5 -21q57 0 130 31l-204 -207q-89 0 -171 28z" />
<glyph unicode="z" horiz-adv-x="1723" d="M1631 227l-111 -89q-43 -33 -97 -68t-97.5 -53t-101.5 -33.5t-122 -21t-147 -5.5q-111 0 -364 43t-363 43h-2q-87 0 -180 -86q63 136 140.5 257t163.5 225.5t204 217t239 213.5l291 233l-125 -49q-61 -18 -125 -18q-96 0 -287 53.5t-276 53.5q-42 0 -87.5 -18t-89.5 -43 t-61 -31l183 164q114 87 238 87h3q104 0 351.5 -38t359.5 -38q107 0 211 27.5t176 69.5q-98 -79 -237 -179l-248 -176q-109 -76 -237 -176.5t-226.5 -192.5t-191.5 -212t-154 -247q69 62 155 62q105 0 352.5 -42t354.5 -42q300 0 508 109z" />
<glyph unicode="{" horiz-adv-x="661" d="M421 1022q0 -254 -164 -331q77 -43 120.5 -121t43.5 -217v-388q0 -117 23 -165t67 -48h70q14 0 22 -28.5t8 -66.5q0 -43 -8 -74.5t-22 -31.5h-144q-31 0 -65.5 21t-68 62t-55.5 115.5t-22 168.5v407q0 109 -36 177t-75 77l-20 4q-16 0 -26 33.5t-10 76.5q0 42 9.5 72.5 t26.5 30.5l20 4q39 7 75 74t36 178v407q0 94 21.5 168t55 114.5t68 61t66.5 20.5h143q15 0 23.5 -30.5t8.5 -71.5q0 -40 -8 -69t-24 -29h-69q-90 0 -90 -211v-390z" />
<glyph unicode="|" horiz-adv-x="361" d="M100 1567q0 36 24.5 56.5t56.5 20.5t56.5 -20.5t24.5 -56.5v-1532q0 -37 -24 -57t-57 -20t-57 20t-24 57v1532z" />
<glyph unicode="}" horiz-adv-x="661" d="M250 1022v390q0 211 -90 211h-69q-15 0 -23.5 29t-8.5 69q0 41 8.5 71.5t23.5 30.5h143q32 0 66.5 -20.5t68 -61t55 -114.5t21.5 -168v-407q0 -111 36 -178t75 -74l20 -4q17 0 26.5 -30.5t9.5 -72.5q0 -43 -10 -76.5t-26 -33.5l-20 -4q-39 -9 -75 -77t-36 -177v-407 q0 -94 -22 -168.5t-55.5 -115.5t-68 -62t-65.5 -21h-144q-14 0 -22 31.5t-8 74.5q0 38 8 66.5t22 28.5h70q44 0 67 48t23 165v388q0 139 43.5 217t120.5 121q-164 77 -164 331z" />
<glyph unicode="~" horiz-adv-x="862" d="M339 1280q42 0 89 -24t81 -52t74 -52t70 -24q21 0 32.5 3.5t30 23.5t38.5 61l21 43q6 16 14 16q15 0 27 -42.5t12 -89.5q0 -32 -7 -53q-36 -99 -72.5 -131t-97.5 -32q-34 0 -71 15.5t-68 37.5l-60 46q-30 22 -60 37.5t-55 15.5q-20 0 -31 -3.5t-28 -23.5t-37 -61l-20 -42 q-4 -10 -11 -10q-14 0 -29 43.5t-15 87.5q0 25 6 46q37 101 71.5 132.5t95.5 31.5z" />
<glyph unicode="&#xad;" horiz-adv-x="812" d="M144 638q-18 0 -28.5 28.5t-10.5 66.5q0 39 10.5 67t28.5 28h534q18 0 28.5 -28t10.5 -67q0 -38 -10.5 -66.5t-28.5 -28.5h-534z" />
<glyph unicode="&#x2c6;" horiz-adv-x="742" d="M648 981q2 -6 2 -10q0 -18 -17 -27.5t-43 -9.5q-30 0 -56 12.5t-32 34.5l-123 404l-124 -405q-7 -22 -32 -34t-55 -12q-26 0 -43 9t-17 26v11l205 611q11 39 62 39q57 0 71 -39z" />
<glyph unicode="&#x2dc;" horiz-adv-x="563" d="M-137 475q42 0 89 -24t81 -52t74 -52t70 -24q21 0 32.5 3.5t30 23.5t38.5 61l21 43q6 16 14 16q15 0 27 -42.5t12 -89.5q0 -32 -7 -53q-36 -99 -72.5 -131t-97.5 -32q-34 0 -71 15.5t-68 37.5l-60 46q-30 22 -60 37.5t-55 15.5q-20 0 -31 -3.5t-28 -23.5t-37 -61l-20 -42 q-4 -10 -11 -10q-14 0 -29 43.5t-15 87.5q0 25 6 46q37 101 71.5 132.5t95.5 31.5z" />
<glyph unicode="&#x591;" />
<glyph unicode="&#x592;" />
<glyph unicode="&#x593;" />
<glyph unicode="&#x594;" />
<glyph unicode="&#x595;" />
<glyph unicode="&#x596;" />
<glyph unicode="&#x597;" />
<glyph unicode="&#x598;" />
<glyph unicode="&#x599;" />
<glyph unicode="&#x59a;" />
<glyph unicode="&#x59b;" />
<glyph unicode="&#x59c;" />
<glyph unicode="&#x59d;" />
<glyph unicode="&#x59e;" />
<glyph unicode="&#x59f;" />
<glyph unicode="&#x5a0;" />
<glyph unicode="&#x5a1;" />
<glyph unicode="&#x5a2;" />
<glyph unicode="&#x5a3;" />
<glyph unicode="&#x5a4;" />
<glyph unicode="&#x5a5;" />
<glyph unicode="&#x5a6;" />
<glyph unicode="&#x5a7;" />
<glyph unicode="&#x5a8;" />
<glyph unicode="&#x5a9;" />
<glyph unicode="&#x5aa;" />
<glyph unicode="&#x5ab;" />
<glyph unicode="&#x5ac;" />
<glyph unicode="&#x5ad;" />
<glyph unicode="&#x5ae;" />
<glyph unicode="&#x5af;" />
<glyph unicode="&#x5b0;" d="M-99 -450q0 40 29 68.5t70 28.5t70 -28.5t29 -68.5q0 -41 -29 -70t-70 -29t-70 29t-29 70zM-99 -238q0 41 29 69.5t70 28.5t69 -28t28 -70t-28 -70t-69 -28t-70 28.5t-29 69.5z" />
<glyph unicode="&#x5b1;" d="M114 -453q0 41 29.5 69t69.5 28q42 0 70 -28t28 -69t-28.5 -69.5t-69.5 -28.5q-40 0 -69.5 28.5t-29.5 69.5zM114 -241q0 41 28.5 70t69.5 29t70 -29t29 -70t-29 -69.5t-70 -28.5t-69.5 28.5t-28.5 69.5zM-89 -235q0 41 28.5 69.5t69.5 28.5q42 0 70.5 -28.5t28.5 -69.5 q0 -40 -28 -69.5t-71 -29.5q-41 0 -69.5 29t-28.5 70zM-203 -453q0 41 29 70.5t70 29.5t69.5 -29.5t28.5 -70.5t-28.5 -69.5t-69.5 -28.5t-70 28.5t-29 69.5zM-311 -237q0 41 28.5 69.5t69.5 28.5t70 -28.5t29 -69.5t-29 -70t-70 -29q-42 0 -70 28.5t-28 70.5z" />
<glyph unicode="&#x5b2;" d="M94 -450q0 40 29.5 68.5t70.5 28.5t69.5 -28.5t28.5 -68.5q0 -41 -28.5 -70t-69.5 -29t-70.5 29t-29.5 70zM94 -238q0 41 28 69.5t69 28.5t70 -28.5t29 -69.5t-29 -69.5t-70 -28.5t-69 28.5t-28 69.5zM53 -304h-345q-6 39 -6 80q0 40 6 82h345q5 -43 5 -78q0 -37 -5 -84z " />
<glyph unicode="&#x5b3;" d="M141 -450q0 42 29.5 69.5t69.5 27.5q41 0 69.5 -28t28.5 -69q0 -40 -29 -69t-69 -29q-42 0 -70.5 28.5t-28.5 69.5zM141 -237q0 42 28 70t69 28t69.5 -28.5t28.5 -69.5q0 -42 -28 -70.5t-70 -28.5t-69.5 29.5t-27.5 69.5zM-338 -137h427v-167h-123v-251h-166v251h-138 v167z" />
<glyph unicode="&#x5b4;" d="M-99 -239q0 40 28 69.5t71 29.5q42 0 70.5 -29t28.5 -70t-28.5 -69.5t-70.5 -28.5t-70.5 28.5t-28.5 69.5z" />
<glyph unicode="&#x5b5;" d="M25 -239q0 41 28.5 70t69.5 29t70 -29t29 -70t-29 -69.5t-70 -28.5t-69.5 28.5t-28.5 69.5zM-222 -239q0 41 29 69.5t70 28.5t70 -28.5t29 -69.5t-29 -69.5t-70 -28.5t-70 28.5t-29 69.5z" />
<glyph unicode="&#x5b6;" d="M27 -237q0 41 29.5 69.5t70.5 28.5t69.5 -28.5t28.5 -69.5t-28.5 -70t-69.5 -29t-70.5 29t-29.5 70zM-97 -452q0 40 27.5 69.5t69.5 29.5q41 0 71 -29t30 -70t-30 -70t-71 -29q-42 0 -69.5 29.5t-27.5 69.5zM-225 -237q0 41 28.5 69.5t69.5 28.5t70.5 -28.5t29.5 -69.5 t-29.5 -70t-70.5 -29t-69.5 29t-28.5 70z" />
<glyph unicode="&#x5b7;" d="M194 -287h-388q-8 42 -8 78q0 37 8 69h388q10 -37 10 -72t-10 -75z" />
<glyph unicode="&#x5b8;" d="M-214 -140h428q5 -45 5 -83q0 -36 -5 -81h-121v-250q-36 -5 -85 -5q-48 0 -82 5v250h-140q-8 35 -8 75q0 29 8 89z" />
<glyph unicode="&#x5b9;" d="M-99 1382q0 40 28 69.5t71 29.5q42 0 70.5 -29t28.5 -70t-28.5 -69.5t-70.5 -28.5t-70.5 28.5t-28.5 69.5z" />
<glyph unicode="&#x5ba;" d="M-99 1382q0 40 28 69.5t71 29.5q42 0 70.5 -29t28.5 -70t-28.5 -69.5t-70.5 -28.5t-70.5 28.5t-28.5 69.5z" />
<glyph unicode="&#x5bb;" d="M41 -481q0 36 26.5 61t62.5 25q38 0 64 -25t26 -61q0 -37 -26 -63.5t-64 -26.5q-36 0 -62.5 26.5t-26.5 63.5zM-88 -346q0 36 26 62.5t62 26.5q37 0 64 -26.5t27 -62.5q0 -37 -26.5 -62t-64.5 -25q-36 0 -62 25.5t-26 61.5zM-208 -203q0 37 26 62.5t62 25.5 q38 0 64.5 -25.5t26.5 -62.5t-26.5 -63t-64.5 -26q-36 0 -62 26t-26 63z" />
<glyph unicode="&#x5bc;" d="M-99 559q0 41 29 70t70 29t70 -29t29 -70t-29 -69t-70 -28t-70 28t-29 69z" />
<glyph unicode="&#x5bd;" d="M74 -534h-148v399h148v-399z" />
<glyph unicode="&#x5be;" horiz-adv-x="824" d="M705 792h-578q-24 70 -24 153q0 107 15 153h578q31 -81 31 -146q0 -95 -22 -160z" />
<glyph unicode="&#x5bf;" d="M246 1337h-492q-18 45 -18 94q0 51 18 107h492q18 -58 18 -103q0 -48 -18 -98z" />
<glyph unicode="&#x5c0;" horiz-adv-x="418" d="M100 47v1072q49 21 102 21q55 0 116 -21v-1072q-64 -14 -119 -14q-54 0 -99 14z" />
<glyph unicode="&#x5c1;" d="M-99 1323q0 40 28 69.5t71 29.5q42 0 70.5 -29t28.5 -70t-28.5 -69.5t-70.5 -28.5t-70.5 28.5t-28.5 69.5z" />
<glyph unicode="&#x5c2;" d="M-99 1323q0 40 28 69.5t71 29.5q42 0 70.5 -29t28.5 -70t-28.5 -69.5t-70.5 -28.5t-70.5 28.5t-28.5 69.5z" />
<glyph unicode="&#x5c3;" horiz-adv-x="528" d="M100 912q0 68 48 117t115 49q68 0 116.5 -48.5t48.5 -117.5t-48.5 -118.5t-116.5 -49.5q-67 0 -115 49.5t-48 118.5zM100 211q0 69 48 118.5t115 49.5q68 0 116 -49.5t48 -118.5q0 -68 -48 -117t-116 -49q-67 0 -115 49t-48 117z" />
<glyph unicode="&#x5c4;" />
<glyph unicode="&#x5c5;" />
<glyph unicode="&#x5c7;" d="M-193 -140h386q8 -38 8 -78q0 -36 -8 -89h-103v-250q-50 -8 -90 -8q-38 0 -76 8v250h-117q-9 41 -9 81q0 42 9 86z" />
<glyph unicode="&#x5d0;" horiz-adv-x="1549" d="M508 634q-98 -156 -98 -283q0 -60 22 -76.5t75 -16.5h42l-83 -261h-94q-234 57 -234 278q0 74 29.5 175.5t61 177t87.5 197.5l18 39q-22 30 -49 77.5t-61 113.5t-44 84l163 157l57 -80l66 -94l62 -86l73 -96l67 -82q40 -49 76.5 -86.5l71.5 -70.5q111 49 169.5 111 t58.5 109q0 70 -143 135l177 216q151 -57 204 -125t53 -169q0 -94 -84 -212t-243 -229q192 -153 519 -347l-146 -217q-584 361 -873 661z" />
<glyph unicode="&#x5d1;" horiz-adv-x="1433" d="M285 894q-45 64 -45 132q25 214 82 273h184q0 -4 -11.5 -61.5t-11.5 -78.5q0 -53 93 -67q44 5 102.5 36t95.5 60l37 28l228 -83v-140q-13 -59 -13 -140q0 -139 35 -302.5t89 -290.5q29 -4 89.5 -19.5t87.5 -19.5v-269q-371 69 -595 69q-154 0 -307 -42q-49 -14 -230 -72 l-86 254q222 90 375 120t357 30q-66 249 -66 478v222q-33 -63 -113 -118t-146 -55h-20q-166 0 -211 56z" />
<glyph unicode="&#x5d2;" horiz-adv-x="1104" d="M400 1161l231 135q-3 -12 -3 -63q0 -76 8 -161t39 -213t81 -241t144.5 -229t219.5 -191l-184 -222q-66 58 -171 186t-144 213q-26 32 -47 42t-46 10h-22q-47 0 -86 -36t-65 -99.5t-43 -136t-27 -158.5l-69 43l-77 44l-60 33q0 71 22 146.5t66.5 153.5t126 147t188.5 111 q-31 73 -56.5 249t-25.5 232v5z" />
<glyph unicode="&#x5d3;" horiz-adv-x="1280" d="M285 954l-66 -147q-19 13 -83 79l-68 71l168 333q15 -11 57.5 -48.5t76.5 -60t74 -34.5q88 -15 159 -15q112 0 225.5 45.5t250.5 160.5l99 -279q-137 -85 -192 -146q-35 -135 -35 -280q0 -66 5 -117t20 -107t27 -91l43 -118l49 -137l-204 -129q-86 197 -134.5 367 t-48.5 329q0 67 19 155.5t56 155.5q-38 -46 -99.5 -67t-114.5 -21q-81 0 -171 35.5t-113 65.5z" />
<glyph unicode="&#x5d4;" horiz-adv-x="1467" d="M983 961q-80 -76 -220 -76q-80 0 -130 14.5t-114.5 49.5t-112.5 53q-10 -19 -55 -78t-53 -65q-114 19 -184 92l229 375l204 -132q127 -75 228 -75q132 0 204 37q3 14 5 34l4 32q2 12 6 29.5t10 35.5h248q-27 -82 -35 -147.5t-8 -160.5q0 -129 25 -255t55 -208l79 -210 q50 -127 76 -207l-192 -172q-62 143 -117.5 302t-103.5 368.5t-48 363.5zM389 711l282 102q-118 -208 -178 -397t-60 -419h-225q0 263 36.5 407.5t144.5 306.5z" />
<glyph unicode="&#x5d5;" horiz-adv-x="768" d="M60 756q35 63 111.5 166.5t131.5 171.5l151 184q19 0 40 -3q38 0 67.5 -123.5t45.5 -322t23.5 -409t7.5 -420.5h-248q34 210 34 416q0 390 -35 565q-10 6 -23 6q-34 0 -78.5 -50.5t-62.5 -105.5z" />
<glyph unicode="&#x5d6;" horiz-adv-x="714" d="M549 129l-237 -157q-69 239 -88.5 401.5t-19.5 486.5q0 147 -105 195l207 261q89 -37 168 -122.5t114 -174.5l-147 -171l-30 21q-21 -69 -21 -154q0 -98 25 -206t55 -180l54 -131q25 -58 25 -69z" />
<glyph unicode="&#x5d7;" horiz-adv-x="1355" d="M401 821q8 -128 8 -283v-77q0 -256 -22 -461h-248q53 329 53 600q0 60 -2 115t-4 96q-4 41 -10 92l-10 77q-4 26 -14 80l-14 73l-18 81l-18 82h248q8 -42 12.5 -106t8.5 -93q134 67 319 67q82 0 159.5 -18t123.5 -52l64 151l206 -156q-146 -252 -146 -524q0 -278 98 -485 l-206 -119q-123 222 -123 563v45q0 99 5.5 161t24.5 137q-67 30 -216 30q-135 0 -279 -76z" />
<glyph unicode="&#x5d8;" horiz-adv-x="1561" d="M492 851q0 -112 23.5 -223t56 -185.5t62 -122t44.5 -53.5q74 -8 125 -8q109 0 185 31t122.5 82.5t94.5 142.5q27 59 27 146v5v9q0 38 -1 62.5t-4.5 65.5t-13 69t-24 57t-39.5 45.5t-58 20.5q0 1 -14 1l-13 -1q-24 0 -42 -4.5t-33.5 -20.5t-25 -29.5t-22.5 -48.5 q-14 -34 -22 -60l-27 -82l-32 -97l-41 31l-33 24l-25 19q-16 13 -19 15t-15 13t-14 13t-13.5 14.5t-16 18t-19.5 22.5q33 87 64 152.5t75.5 133t92 110.5t112.5 70.5t139 27.5q141 -59 229 -225.5t88 -379.5q0 -335 -160 -573q-208 -80 -368 -116.5t-373 -36.5 q-156 207 -222 400.5t-66 476.5q-133 22 -200 92l231 383l228 -108q-43 -102 -43 -379z" />
<glyph unicode="&#x5d9;" horiz-adv-x="748" d="M3236 380zM488 408q0 150 -27.5 285t-78.5 183q-10 6 -23 6q-32 0 -74 -32.5t-71 -72.5l-137 -66q0 99 24 197t67.5 180t113 133t151.5 51q35 0 72 -9q76 -31 115 -209t39 -478z" />
<glyph unicode="&#x5da;" horiz-adv-x="1104" d="M2424 400zM701 291q-29 78 -35.5 190t-6.5 394q-189 -54 -298 -54q-127 0 -204.5 73t-97.5 249l177 186q14 -127 82 -191t164 -64q78 0 156.5 39t137.5 108q12 22 40.5 34.5t60.5 12.5q41 0 69.5 -21.5t28.5 -63.5q0 -21 -5 -38q-86 -205 -86 -369q0 -276 78 -521 q18 -78 18 -170q0 -194 -62 -349t-133 -224q-12 18 -34 35.5t-26 21.5q22 46 29 114t7 179q0 189 -60 429z" />
<glyph unicode="&#x5db;" horiz-adv-x="1214" d="M2517 639zM834 354q-29 75 -36 172.5t-7 358.5q-189 -54 -298 -54q-127 0 -204.5 73t-97.5 249l177 186q14 -127 82 -191t164 -64q78 0 156.5 39t137.5 108q12 22 40.5 34.5t60.5 12.5q41 0 69.5 -21.5t28.5 -63.5q0 -21 -5 -38q-86 -205 -86 -369q0 -220 79 -468 q0 -214 -250 -295q-175 -57 -550 -62q-65 -1 -192 -1h-8l80 284h4q2 0 59.5 -1t105.5 -1q375 0 447 67q43 43 43 45z" />
<glyph unicode="&#x5dc;" horiz-adv-x="1173" d="M433 1296q188 -22 385.5 -132t260.5 -230q0 -612 -532 -968h-180l51 60l55 66l53 64q38 46 54 71l48 68q31 45 46 73l36 69q21 41 31 73.5t17.5 69t7.5 70.5q0 125 -7 161q-55 89 -166.5 152t-227.5 89.5t-226 26.5q42 92 70 340t28 460q0 119 -11 158q-53 -2 -90 -90.5 t-37 -188.5q0 -29 29 -110t37 -126l-75 -70q-12 27 -49 104.5t-50.5 110t-28.5 84t-15 91.5q0 137 55.5 254t164.5 255q34 36 79.5 58.5t76.5 22.5q49 0 73 -70q46 -179 46 -633q0 -111 -2 -212t-4.5 -158.5t-2.5 -62.5z" />
<glyph unicode="&#x5dd;" horiz-adv-x="1475" d="M220 1311q0 -217 211 -217q11 0 17 1q4 33 14 97t14 104h203l-15 -198q119 0 195.5 48t177.5 161l47 -11q144 -146 227.5 -424.5t83.5 -568.5q0 -105 -15 -198q-280 -29 -367 -45q-220 -42 -340 -145q-35 -29 -64 -65h-248q-17 128 -17 273q0 128 10.5 248.5t33 285.5 t28.5 216q-27 -6 -58 -6q-137 0 -209.5 67.5t-72.5 202.5zM637 864l-9 -70q-7 -54 -8.5 -69.5t-6.5 -58.5t-7 -65l-4 -59q-2 -37 -2.5 -71t-0.5 -72q0 -119 14 -236q64 32 107 51l74 32q30 12 73.5 20.5t70.5 13t103 14.5l134 18q0 185 -37 343t-129 368l-54 -39 q-37 -28 -58 -41t-59.5 -31.5t-87.5 -29.5t-113 -18z" />
<glyph unicode="&#x5de;" horiz-adv-x="1249" d="M204 1166l175 112q0 -10 -1.5 -28.5t-1.5 -27.5q0 -65 28.5 -127.5t69 -104t76.5 -68t57 -32.5q85 80 122.5 164t37.5 154l164 88l46 -128q38 -106 50 -146l44 -133q31 -93 45 -147l31 -130q18 -76 25 -136t7 -114q0 -263 -194 -342q-241 -55 -408.5 -75.5t-393.5 -20.5 q27 52 50.5 89.5t53.5 80t46 67.5h112q174 0 282.5 21t167.5 90q29 37 37 70t8 88v33q0 228 -75 424l-75 -115q-30 -43 -69 -94t-69.5 -80t-74 -62t-87 -52t-102.5 -38.5t-127 -32.5t-155 -24l21 178q114 26 169 55t146 106q-72 28 -136.5 97t-97 134t-32.5 102v22 q0 32 28 83z" />
<glyph unicode="&#x5df;" horiz-adv-x="730" d="M339 1155q142 -54 226.5 -212.5t84.5 -402.5q0 -171 -32.5 -435t-86.5 -484q-69 -47 -142.5 -77.5t-124.5 -30.5q59 184 96.5 449t37.5 457q0 303 -89 493q-80 0 -146 19.5t-72 60.5q-9 28 -9 67q0 66 23 145.5t63 142.5l159 -94q-13 -47 -13 -55q0 -26 25 -43z" />
<glyph unicode="&#x5e0;" horiz-adv-x="979" d="M965 165q-47 -40 -106 -70.5t-112 -49.5t-125.5 -35t-124.5 -24l-133 -20q-81 -12 -128 -20l-135 231q87 0 188.5 23t170 48t173.5 68q-60 88 -92 142.5t-64 131t-45 159.5t-13 190q-44 -55 -98 -55q-23 0 -70 10l66 261q60 0 108 18.5t74.5 42t63 49t72.5 35.5 q3 0 7 0.5t7 0.5q45 0 85 -50q-34 -99 -56 -213t-22 -186q0 -57 8.5 -97.5t17.5 -59t39 -65.5t47 -78q56 -52 84 -81.5t63 -83.5t64 -125q5 -15 5 -29q0 -27 -19 -68z" />
<glyph unicode="&#x5e1;" horiz-adv-x="1396" d="M984 894q-244 0 -492 -65q15 -110 15 -159q0 -53 -6.5 -84t-19 -74.5t-21.5 -101.5q19 -18 70 -78.5t93 -96t80 -35.5q63 0 108 16.5t76.5 56.5t50.5 90.5t29 135.5t13.5 173.5t3.5 221.5zM266 296q54 203 54 334q0 100 -32 167q-65 9 -119 40.5t-82 76.5l233 396 l259 -84q0 -16 -4 -44t-4 -39q0 -22 12 -33.5t44 -11.5q110 0 193 20.5t129.5 50.5t81.5 60t71 53t76 26q44 0 83 -8q4 -15 17 -54.5t19 -69t6 -60.5q0 -75 -45 -160q0 -202 -32.5 -373t-86 -287.5t-123 -198.5t-143 -120t-146.5 -38q-105 0 -178 61.5t-131 175.5z" />
<glyph unicode="&#x5e2;" horiz-adv-x="1474" d="M598 1017q-60 -164 -60 -264q0 -52 17 -88.5t41.5 -55.5t68 -29.5t80 -13t93.5 -2.5q70 74 115 128t86.5 116.5t61 121.5t19.5 119q0 41 -13 114t-30 112h248q23 -44 39 -125t16 -136q0 -121 -62.5 -257.5t-163.5 -258.5t-228.5 -237.5t-256.5 -202t-248.5 -143 t-203.5 -68.5q-197 0 -270 69q138 71 314.5 184t339.5 246q-139 41 -212.5 148t-73.5 262q0 175 94 385z" />
<glyph unicode="&#x5e3;" horiz-adv-x="1182" d="M880 -408q0 161 -21 437t-63.5 562t-90.5 384q-14 -7 -74.5 -32.5t-94 -42.5t-97 -63t-127.5 -108q0 -53 46 -104t93 -80l-126 -120q-95 52 -173 173t-92 223q126 117 322 257.5t362 212.5q7 0 20 1t20 1q41 0 80 -46q71 -108 121.5 -328.5t74 -479.5t33 -465.5 t9.5 -381.5h-222z" />
<glyph unicode="&#x5e4;" horiz-adv-x="1212" d="M1137 189q-86 -129 -363.5 -205.5t-647.5 -76.5l117 225q119 14 204.5 29.5t161 40.5t106.5 38t111 50q19 8 29 13q0 209 -21.5 355.5t-81.5 328.5q-14 -7 -74.5 -32.5t-94 -42.5t-97 -63t-127.5 -108q0 -28 9.5 -44.5t21 -22t32.5 -13t33 -14.5l-126 -120 q-194 105 -222 303q126 117 322 257.5t362 212.5q7 0 20 1t20 1q41 0 80 -46q105 -247 165.5 -521t60.5 -546z" />
<glyph unicode="&#x5e5;" horiz-adv-x="1136" d="M125 1106q0 109 22 196h266q-47 -112 -47 -208q0 -16 -1.5 -50t-1.5 -51q0 -85 30 -139q4 -8 32 -8q54 0 144 29t162 73t72 78q0 44 -23.5 74t-46.5 38l-23 8l93 197q107 -29 180 -96t73 -177q0 -183 -303 -319q-106 -47 -350 -125q20 -148 52 -267t63 -189l60 -130 q28 -60 45.5 -122.5t17.5 -133.5q-76 -160 -318 -264l-191 123q29 21 86 56t89 56.5t60.5 53t31.5 61.5q-84 169 -140.5 335.5t-84.5 324t-38.5 290.5t-10.5 286z" />
<glyph unicode="&#x5e6;" horiz-adv-x="1308" d="M916 1308q49 -13 96 -37.5t90 -60t69 -86t26 -107.5q0 -45 -15.5 -86t-40 -73.5t-64.5 -65t-78 -56t-92.5 -50.5t-96.5 -45l-100 -44q-60 -26 -95 -43q51 -49 123 -85q70 -35 132 -55l117 -38q55 -18 87.5 -43.5t32.5 -62.5q0 -212 -308 -277q-289 -71 -525 -71h-180 l117 216q150 0 325 24.5t311 65.5q-122 0 -247.5 63.5t-223 165t-159 238t-61.5 273.5q0 10 1.5 30t1.5 30q0 65 41 226h248q-26 -62 -46 -135.5t-20 -118.5q0 -111 65 -226q4 -8 32 -8q56 0 163.5 28t199 71t91.5 77q0 28 -12.5 52.5t-30.5 39.5t-36 26t-30 16l-13 4z" />
<glyph unicode="&#x5e7;" horiz-adv-x="1370" d="M412 774q134 -219 262 -537.5t128 -489.5l-155 -154q-24 151 -64.5 277t-93.5 223.5t-103 172.5l-114 170q-64 95 -107 170zM1228 1251q53 -77 53 -174q0 -124 -78 -256q-24 -41 -55 -76t-59.5 -59t-69.5 -49t-69 -39l-76 -38l-71 -36l-175 49q238 153 358 389q4 15 4 32 q0 41 -40 55q-63 -25 -149 -67l-147 -74q-60 -32 -141 -56t-157 -24q-98 0 -185.5 87t-87.5 155q0 30 12 51l115 141q86 104 104 130q6 -25 10 -70.5t8.5 -80.5t15 -70.5t35 -55t62.5 -19.5q5 0 15 1t16 1q82 0 162.5 18t147 46t124.5 57l120 57q62 28 109 41h2 q13 0 45 -26.5t42 -39.5z" />
<glyph unicode="&#x5e8;" horiz-adv-x="1203" d="M288 1221q0 -68 24.5 -127t61.5 -59q31 0 73 18q104 53 146 76t100 63.5t102 88.5h102q113 -225 158 -386.5t45 -307.5q0 -157 -38 -413l-159 -182v224v53q0 121 -1.5 187t-9.5 153.5t-23.5 145t-44.5 122.5t-72 124q-65 -96 -171 -146.5t-242 -50.5q-118 0 -192.5 66 t-74.5 168z" />
<glyph unicode="&#x5e9;" horiz-adv-x="1908" d="M1524 932q0 69 -41 114.5t-102 45.5l251 241q51 -34 88.5 -83.5t57 -104.5t28.5 -108t9 -106q0 -43 -4 -72q-14 -89 -59 -171t-106.5 -146.5t-145.5 -126t-168 -107t-182 -92.5q-100 -46 -180 -79l-168 -71q-88 -38 -141 -66l-172 -78q-40 0 -88 14q46 148 67 252t21 203 q0 60 -11 116t-26 99.5t-45 92t-53.5 79.5t-66 75.5t-67.5 67.5l-74 68l-72 65q86 98 205 210q96 -89 197 -201t156 -194q98 35 163.5 104.5t65.5 137.5q0 23 -17 53t-39 50l302 62q14 -27 24.5 -78t10.5 -80q0 -90 -29.5 -157.5t-81.5 -111t-105 -73.5l-120 -67 q-66 -36 -104 -69q6 -33 15 -69t12.5 -59t3.5 -56q0 -24 -1 -40t-4.5 -31.5t-5.5 -22t-9 -26t-11 -29.5q103 14 218.5 61.5t211.5 107.5t178 124t131.5 116t59.5 78q23 61 23 138z" />
<glyph unicode="&#x5ea;" horiz-adv-x="1436" d="M546 1266q96 -118 109 -196q80 20 154 60t167.5 105t133.5 89q48 0 77.5 -9.5t49.5 -43.5q0 -553 94 -799q24 -54 39.5 -118t15.5 -105l-210 -199q-56 238 -87.5 451t-31.5 454l-295 -159q34 -137 34 -249q0 -491 -620 -587q-17 15 -119 90l86 32q34 13 81.5 33t79 37.5 t70.5 42t64 49t51 57t41 67t24.5 77.5t9.5 91q0 102 -30 211l-144 -18l-79 202l124 47q0 17 -6.5 38t-13.5 37t-23 41.5t-24 35.5l-26 38q-19 26 -21 29z" />
<glyph unicode="&#x5f0;" horiz-adv-x="1536" d="M828 756q35 63 111.5 166.5t131.5 171.5l151 184q19 0 40 -3q38 0 67.5 -123.5t45.5 -322t23.5 -409t7.5 -420.5h-248q34 210 34 416q0 390 -35 565q-10 6 -23 6q-34 0 -78.5 -50.5t-62.5 -105.5zM60 756q35 63 111.5 166.5t131.5 171.5l151 184q19 0 40 -3 q38 0 67.5 -123.5t45.5 -322t23.5 -409t7.5 -420.5h-248q34 210 34 416q0 390 -35 565q-10 6 -23 6q-34 0 -78.5 -50.5t-62.5 -105.5z" />
<glyph unicode="&#x5f1;" horiz-adv-x="1516" d="M808 756q35 63 111.5 166.5t131.5 171.5l151 184q19 0 40 -3q38 0 67.5 -123.5t45.5 -322t23.5 -409t7.5 -420.5h-248q34 210 34 416q0 390 -35 565q-10 6 -23 6q-34 0 -78.5 -50.5t-62.5 -105.5zM3236 380zM488 408q0 150 -27.5 285t-78.5 183q-10 6 -23 6 q-32 0 -74 -32.5t-71 -72.5l-137 -66q0 99 24 197t67.5 180t113 133t151.5 51q35 0 72 -9q76 -31 115 -209t39 -478z" />
<glyph unicode="&#x5f2;" horiz-adv-x="1496" d="M3984 380zM1236 408q0 150 -27.5 285t-78.5 183q-10 6 -23 6q-32 0 -74 -32.5t-71 -72.5l-137 -66q0 99 24 197t67.5 180t113 133t151.5 51q35 0 72 -9q76 -31 115 -209t39 -478zM3236 380zM488 408q0 150 -27.5 285t-78.5 183q-10 6 -23 6q-32 0 -74 -32.5t-71 -72.5 l-137 -66q0 99 24 197t67.5 180t113 133t151.5 51q35 0 72 -9q76 -31 115 -209t39 -478z" />
<glyph unicode="&#x5f3;" horiz-adv-x="450" d="M275 1605l-65 -457q-4 -22 -23 -36t-41 -14q-39 0 -39 39v435q0 30 33.5 46.5t74.5 16.5q60 0 60 -27v-3z" />
<glyph unicode="&#x5f4;" horiz-adv-x="880" d="M491 1610l-65 -457q-4 -22 -23.5 -36t-40.5 -14q-40 0 -40 39v435q0 30 33.5 46.5t74.5 16.5q61 0 61 -26v-4zM262 1602l-65 -457q-4 -21 -23 -35t-41 -14q-40 0 -40 38v435q0 30 33.5 46.5t74.5 16.5q61 0 61 -26v-4z" />
<glyph unicode="&#x2000;" horiz-adv-x="1216" />
<glyph unicode="&#x2001;" horiz-adv-x="2432" />
<glyph unicode="&#x2002;" horiz-adv-x="1216" />
<glyph unicode="&#x2003;" horiz-adv-x="2432" />
<glyph unicode="&#x2004;" horiz-adv-x="810" />
<glyph unicode="&#x2005;" horiz-adv-x="608" />
<glyph unicode="&#x2006;" horiz-adv-x="405" />
<glyph unicode="&#x2007;" horiz-adv-x="405" />
<glyph unicode="&#x2008;" horiz-adv-x="304" />
<glyph unicode="&#x2009;" horiz-adv-x="486" />
<glyph unicode="&#x200a;" horiz-adv-x="135" />
<glyph unicode="&#x2010;" horiz-adv-x="812" d="M144 638q-18 0 -28.5 28.5t-10.5 66.5q0 39 10.5 67t28.5 28h534q18 0 28.5 -28t10.5 -67q0 -38 -10.5 -66.5t-28.5 -28.5h-534z" />
<glyph unicode="&#x2011;" horiz-adv-x="812" d="M144 638q-18 0 -28.5 28.5t-10.5 66.5q0 39 10.5 67t28.5 28h534q18 0 28.5 -28t10.5 -67q0 -38 -10.5 -66.5t-28.5 -28.5h-534z" />
<glyph unicode="&#x2012;" horiz-adv-x="812" d="M144 638q-18 0 -28.5 28.5t-10.5 66.5q0 39 10.5 67t28.5 28h534q18 0 28.5 -28t10.5 -67q0 -38 -10.5 -66.5t-28.5 -28.5h-534z" />
<glyph unicode="&#x2013;" horiz-adv-x="1024" d="M105 638v190h824v-190h-824z" />
<glyph unicode="&#x2014;" horiz-adv-x="2048" d="M105 638v190h1848v-190h-1848z" />
<glyph unicode="&#x2018;" horiz-adv-x="450" d="M275 1605l-65 -457q-4 -22 -23 -36t-41 -14q-39 0 -39 39v435q0 30 33.5 46.5t74.5 16.5q60 0 60 -27v-3z" />
<glyph unicode="&#x2019;" horiz-adv-x="450" d="M275 1605l-65 -457q-4 -22 -23 -36t-41 -14q-39 0 -39 39v435q0 30 33.5 46.5t74.5 16.5q60 0 60 -27v-3z" />
<glyph unicode="&#x201c;" horiz-adv-x="880" d="M491 1610l-65 -457q-4 -22 -23.5 -36t-40.5 -14q-40 0 -40 39v435q0 30 33.5 46.5t74.5 16.5q61 0 61 -26v-4zM262 1602l-65 -457q-4 -21 -23 -35t-41 -14q-40 0 -40 38v435q0 30 33.5 46.5t74.5 16.5q61 0 61 -26v-4z" />
<glyph unicode="&#x201d;" horiz-adv-x="880" d="M491 1610l-65 -457q-4 -22 -23.5 -36t-40.5 -14q-40 0 -40 39v435q0 30 33.5 46.5t74.5 16.5q61 0 61 -26v-4zM262 1602l-65 -457q-4 -21 -23 -35t-41 -14q-40 0 -40 38v435q0 30 33.5 46.5t74.5 16.5q61 0 61 -26v-4z" />
<glyph unicode="&#x2026;" horiz-adv-x="1200" d="M864 206q0 80 35.5 142t82.5 62q36 0 59 -40t23 -100q0 -79 -35.5 -141t-82.5 -62q-36 0 -59 40t-23 99zM464 206q0 80 35.5 142t82.5 62q36 0 59 -40t23 -100q0 -79 -35.5 -141t-82.5 -62q-36 0 -59 40t-23 99zM64 206q0 80 35.5 142t82.5 62q36 0 59 -40t23 -100 q0 -79 -35.5 -141t-82.5 -62q-36 0 -59 40t-23 99z" />
<glyph unicode="&#x202f;" horiz-adv-x="486" />
<glyph unicode="&#x2039;" horiz-adv-x="953" d="M315 834l534 -355q14 -9 22 -48.5t8 -85.5q0 -90 -23 -90h-7l-699 471q-21 16 -21 103q0 98 25 114l698 469q4 2 7 2q23 0 23 -91q0 -46 -8 -85.5t-22 -47.5z" />
<glyph unicode="&#x203a;" horiz-adv-x="953" d="M712 776l-537 356q-14 8 -22 47.5t-8 85.5q0 91 23 91q3 0 7 -2l698 -469q25 -16 25 -114q0 -87 -21 -103l-699 -471h-7q-23 0 -23 90q0 46 8 85.5t22 48.5z" />
<glyph unicode="&#x205f;" horiz-adv-x="608" />
<glyph unicode="&#x20ac;" horiz-adv-x="1282" d="M815 -63q-88 0 -174 31.5t-162.5 92t-134.5 162t-83 229.5h-171q-12 22 -12 46q0 55 72 115h92v26v48h-152q-10 21 -10 45q0 58 70 116h115q6 29 14 57t29.5 81.5t49 98.5t75 96.5t105 87t142 59.5t182.5 24q185 0 313 -82l17 -11q10 -29 10 -53q0 -38 -21.5 -66 t-61.5 -58l-24 14q-105 59 -253 59q-134 0 -227 -80t-132 -227h543q23 -19 23 -42q0 -41 -85 -119h-504q0 -8 -0.5 -23.5t-0.5 -22.5v-28h478q22 -28 22 -52q0 -20 -15 -41t-28.5 -33t-43.5 -35h-392q39 -147 133.5 -232.5t203.5 -85.5q75 0 131 10t116 40l24 13 q75 -39 75 -135q0 -20 -3 -43l-19 -11q-125 -71 -326 -71z" />
<glyph unicode="&#x2122;" horiz-adv-x="3288" d="M2267 454q48 -115 99 -199q6 -1 16 -1q25 0 46 10.5t52.5 37t38.5 31.5q-28 -83 -124.5 -208t-136.5 -125q-36 0 -51 13t-57 74q-93 223 -186.5 566t-129.5 591q0 -167 -130.5 -444.5t-349.5 -555.5q19 -9 60 -9q31 0 103.5 8.5t103.5 8.5q65 0 81 -28l-120 -224 q-38 25 -106 25q-34 0 -142.5 -12.5t-183.5 -12.5q0 57 23.5 117t61.5 113l88 120l100 138q51 69 100 165.5t87.5 203t62 252.5t23.5 311q-39 0 -110 -58q25 61 113.5 168.5t129.5 107.5q65 0 112 -61t79 -176.5t57.5 -240t65 -296.5t84.5 -302q212 368 212 840 q-39 0 -110 -58q24 61 113 167.5t130 106.5q57 0 100 -47.5t72.5 -133t53.5 -193.5l52 -238q28 -132 59.5 -259.5t83 -265t116.5 -244.5q6 -1 16 -1q25 0 46 10.5t52.5 37t38.5 31.5q-28 -83 -124.5 -208t-136.5 -125q-36 0 -51 13t-57 74q-93 223 -186.5 566t-129.5 591 q0 -130 -83.5 -341t-226.5 -431zM635 1423q0 -119 18 -492t18 -533q0 -170 4 -291q58 -29 90 -29q57 0 130 38l-204 -258q-59 1 -103.5 12.5t-70.5 28.5t-46.5 33.5t-43 28t-49.5 11.5q-50 0 -121 -50l235 264q5 107 21.5 393t27 506.5t10.5 348.5q-36 4 -117.5 20.5 t-109.5 17.5h-13q-67 0 -135 -24t-171 -74l98 230q46 35 117 50t119 15q12 0 12 -3q40 0 184 -21t246 -21q81 0 206.5 24.5t224.5 59.5l-112 -228q-59 -23 -165.5 -42.5t-177.5 -19.5q-57 0 -122 5z" />
<glyph unicode="&#xe000;" horiz-adv-x="1340" d="M0 1340h1340v-1340h-1340v1340z" />
<glyph unicode="&#xfb00;" horiz-adv-x="2228" d="M1880 1010q-35 0 -103.5 30.5t-128.5 30.5q-48 0 -74 -21v-895q20 -16 63.5 -26.5t65.5 -10.5q58 0 138 44q-81 -91 -150 -151q-28 -29 -104 -29q-67 0 -122.5 14t-84.5 31t-57.5 31t-47.5 14q-35 -4 -41 -6t-70 -40l200 175q7 5 42 5q13 73 25 355t12 461 q-17 0 -33.5 -8t-49.5 -30t-64 -39q34 38 68 86q51 31 87 47q0 50 1.5 144.5t1.5 137.5v89q-25 -4 -51 -11l-71 -20l-79 -23l127 161q4 2 10.5 6.5t9 6t8 4.5t10 4t11 3t14.5 3v11l31 88q1 -3 3 -21t5 -35.5t6 -23.5q52 0 206.5 -21t234.5 -21h8q30 0 96.5 11t117.5 21.5 t53 11.5l-120 -149q-114 -41 -164 -41q-60 0 -203.5 17.5t-198.5 17.5q0 -32 21 -140.5t21 -194.5l38 22q25 14 34 18l30 14q19 9 33 12t34.5 5.5t44.5 2.5q46 -5 108.5 -31.5t107.5 -26.5q27 0 48.5 9t48 25t45.5 24l-102 -131q-4 -2 -20 -9l-20 -9q-4 -2 -17.5 -7.5 t-19.5 -7.5t-17.5 -5.5t-19 -5t-17.5 -2.5t-19 -1zM766 1010q-35 0 -103.5 30.5t-128.5 30.5q-48 0 -74 -21v-895q20 -16 63.5 -26.5t65.5 -10.5q58 0 138 44q-81 -91 -150 -151q-28 -29 -104 -29q-67 0 -122.5 14t-84.5 31t-57.5 31t-47.5 14q-35 -4 -41 -6t-70 -40 l200 175q7 5 42 5q13 73 25 355t12 461q-17 0 -33.5 -8t-49.5 -30t-64 -39q34 38 68 86q51 31 87 47q0 50 1.5 144.5t1.5 137.5v89q-25 -4 -51 -11l-71 -20l-79 -23l127 161q4 2 10.5 6.5t9 6t8 4.5t10 4t11 3t14.5 3v11l31 88q1 -3 3 -21t5 -35.5t6 -23.5q52 0 206.5 -21 t234.5 -21h8q30 0 96.5 11t117.5 21.5t53 11.5l-120 -149q-114 -41 -164 -41q-60 0 -203.5 17.5t-198.5 17.5q0 -32 21 -140.5t21 -194.5l38 22q25 14 34 18l30 14q19 9 33 12t34.5 5.5t44.5 2.5q46 -5 108.5 -31.5t107.5 -26.5q27 0 48.5 9t48 25t45.5 24l-102 -131 q-4 -2 -20 -9l-20 -9q-4 -2 -17.5 -7.5t-19.5 -7.5t-17.5 -5.5t-19 -5t-17.5 -2.5t-19 -1z" />
<glyph unicode="&#xfb01;" horiz-adv-x="1852" d="M1525 140q55 -23 90 -23q56 0 130 30l-204 -206q-59 0 -103.5 9.5t-70.5 22.5t-46.5 26.5t-43 23t-49.5 9.5q-50 0 -121 -40l235 211q0 151 29 413t29 368q0 68 -9 117q-15 9 -32 9q-34 0 -102.5 -50t-85.5 -58q30 28 73 80l73 90q31 39 75 72.5t87 38.5q40 0 40 -317 q0 -97 1 -281t1 -312q0 -42 2 -120t2 -113zM766 1010q-35 0 -103.5 30.5t-128.5 30.5q-48 0 -74 -21v-895q20 -16 63.5 -26.5t65.5 -10.5q58 0 138 44q-81 -91 -150 -151q-28 -29 -104 -29q-67 0 -122.5 14t-84.5 31t-57.5 31t-47.5 14q-35 -4 -41 -6t-70 -40l200 175 q7 5 42 5q13 73 25 355t12 461q-17 0 -33.5 -8t-49.5 -30t-64 -39q34 38 68 86q51 31 87 47q0 50 1.5 144.5t1.5 137.5v89q-25 -4 -51 -11l-71 -20l-79 -23l127 161q4 2 10.5 6.5t9 6t8 4.5t10 4t11 3t14.5 3v11l31 88q1 -3 3 -21t5 -35.5t6 -23.5q52 0 206.5 -21t234.5 -21 h8q30 0 96.5 11t117.5 21.5t53 11.5l-120 -149q-114 -41 -164 -41q-60 0 -203.5 17.5t-198.5 17.5q0 -32 21 -140.5t21 -194.5l38 22q25 14 34 18l30 14q19 9 33 12t34.5 5.5t44.5 2.5q46 -5 108.5 -31.5t107.5 -26.5q27 0 48.5 9t48 25t45.5 24l-102 -131q-4 -2 -20 -9 l-20 -9q-4 -2 -17.5 -7.5t-19.5 -7.5t-17.5 -5.5t-19 -5t-17.5 -2.5t-19 -1z" />
<glyph unicode="&#xfb02;" horiz-adv-x="2307" d="M1595 258q48 0 176 -27.5t224 -27.5q134 0 283 43l-118 -177q-83 -26 -180 -26q-75 0 -206 21.5t-184 21.5q-38 0 -68.5 -1t-61.5 -5l-49 -6q-17 -2 -52 -10l-47 -12q-12 -3 -58.5 -16t-62.5 -17l104 179q9 6 33 12t46 10l53 10q31 5 39 7v1054q0 67 -9 117 q-14 10 -32 10q-26 0 -56 -15t-67 -40t-58 -35q30 27 72 76l70 85q30 35 73 65.5t86 36.5q40 0 40 -317q0 -97 1 -281t1 -313q0 -42 4 -214t4 -208zM766 1010q-35 0 -103.5 30.5t-128.5 30.5q-48 0 -74 -21v-895q20 -16 63.5 -26.5t65.5 -10.5q58 0 138 44 q-81 -91 -150 -151q-28 -29 -104 -29q-67 0 -122.5 14t-84.5 31t-57.5 31t-47.5 14q-35 -4 -41 -6t-70 -40l200 175q7 5 42 5q13 73 25 355t12 461q-17 0 -33.5 -8t-49.5 -30t-64 -39q34 38 68 86q51 31 87 47q0 50 1.5 144.5t1.5 137.5v89q-25 -4 -51 -11l-71 -20l-79 -23 l127 161q4 2 10.5 6.5t9 6t8 4.5t10 4t11 3t14.5 3v11l31 88q1 -3 3 -21t5 -35.5t6 -23.5q52 0 206.5 -21t234.5 -21h8q30 0 96.5 11t117.5 21.5t53 11.5l-120 -149q-114 -41 -164 -41q-60 0 -203.5 17.5t-198.5 17.5q0 -32 21 -140.5t21 -194.5l38 22q25 14 34 18l30 14 q19 9 33 12t34.5 5.5t44.5 2.5q46 -5 108.5 -31.5t107.5 -26.5q27 0 48.5 9t48 25t45.5 24l-102 -131q-4 -2 -20 -9l-20 -9q-4 -2 -17.5 -7.5t-19.5 -7.5t-17.5 -5.5t-19 -5t-17.5 -2.5t-19 -1z" />
<glyph unicode="&#xfb03;" horiz-adv-x="2966" d="M2639 140q55 -23 90 -23q56 0 130 30l-204 -206q-59 0 -103.5 9.5t-70.5 22.5t-46.5 26.5t-43 23t-49.5 9.5q-50 0 -121 -40l235 211q0 151 29 413t29 368q0 68 -9 117q-15 9 -32 9q-34 0 -102.5 -50t-85.5 -58q30 28 73 80l73 90q31 39 75 72.5t87 38.5q40 0 40 -317 q0 -97 1 -281t1 -312q0 -42 2 -120t2 -113zM1880 1010q-35 0 -103.5 30.5t-128.5 30.5q-48 0 -74 -21v-895q20 -16 63.5 -26.5t65.5 -10.5q58 0 138 44q-81 -91 -150 -151q-28 -29 -104 -29q-67 0 -122.5 14t-84.5 31t-57.5 31t-47.5 14q-35 -4 -41 -6t-70 -40l200 175 q7 5 42 5q13 73 25 355t12 461q-17 0 -33.5 -8t-49.5 -30t-64 -39q34 38 68 86q51 31 87 47q0 50 1.5 144.5t1.5 137.5v89q-25 -4 -51 -11l-71 -20l-79 -23l127 161q4 2 10.5 6.5t9 6t8 4.5t10 4t11 3t14.5 3v11l31 88q1 -3 3 -21t5 -35.5t6 -23.5q52 0 206.5 -21t234.5 -21 h8q30 0 96.5 11t117.5 21.5t53 11.5l-120 -149q-114 -41 -164 -41q-60 0 -203.5 17.5t-198.5 17.5q0 -32 21 -140.5t21 -194.5l38 22q25 14 34 18l30 14q19 9 33 12t34.5 5.5t44.5 2.5q46 -5 108.5 -31.5t107.5 -26.5q27 0 48.5 9t48 25t45.5 24l-102 -131q-4 -2 -20 -9 l-20 -9q-4 -2 -17.5 -7.5t-19.5 -7.5t-17.5 -5.5t-19 -5t-17.5 -2.5t-19 -1zM766 1010q-35 0 -103.5 30.5t-128.5 30.5q-48 0 -74 -21v-895q20 -16 63.5 -26.5t65.5 -10.5q58 0 138 44q-81 -91 -150 -151q-28 -29 -104 -29q-67 0 -122.5 14t-84.5 31t-57.5 31t-47.5 14 q-35 -4 -41 -6t-70 -40l200 175q7 5 42 5q13 73 25 355t12 461q-17 0 -33.5 -8t-49.5 -30t-64 -39q34 38 68 86q51 31 87 47q0 50 1.5 144.5t1.5 137.5v89q-25 -4 -51 -11l-71 -20l-79 -23l127 161q4 2 10.5 6.5t9 6t8 4.5t10 4t11 3t14.5 3v11l31 88q1 -3 3 -21t5 -35.5 t6 -23.5q52 0 206.5 -21t234.5 -21h8q30 0 96.5 11t117.5 21.5t53 11.5l-120 -149q-114 -41 -164 -41q-60 0 -203.5 17.5t-198.5 17.5q0 -32 21 -140.5t21 -194.5l38 22q25 14 34 18l30 14q19 9 33 12t34.5 5.5t44.5 2.5q46 -5 108.5 -31.5t107.5 -26.5q27 0 48.5 9t48 25 t45.5 24l-102 -131q-4 -2 -20 -9l-20 -9q-4 -2 -17.5 -7.5t-19.5 -7.5t-17.5 -5.5t-19 -5t-17.5 -2.5t-19 -1z" />
<glyph unicode="&#xfb04;" horiz-adv-x="3421" d="M2709 258q48 0 176 -27.5t224 -27.5q134 0 283 43l-118 -177q-83 -26 -180 -26q-75 0 -206 21.5t-184 21.5q-38 0 -68.5 -1t-61.5 -5l-49 -6q-17 -2 -52 -10l-47 -12q-12 -3 -58.5 -16t-62.5 -17l104 179q9 6 33 12t46 10l53 10q31 5 39 7v1054q0 67 -9 117 q-14 10 -32 10q-26 0 -56 -15t-67 -40t-58 -35q30 27 72 76l70 85q30 35 73 65.5t86 36.5q40 0 40 -317q0 -97 1 -281t1 -313q0 -42 4 -214t4 -208zM1880 1010q-35 0 -103.5 30.5t-128.5 30.5q-48 0 -74 -21v-895q20 -16 63.5 -26.5t65.5 -10.5q58 0 138 44 q-81 -91 -150 -151q-28 -29 -104 -29q-67 0 -122.5 14t-84.5 31t-57.5 31t-47.5 14q-35 -4 -41 -6t-70 -40l200 175q7 5 42 5q13 73 25 355t12 461q-17 0 -33.5 -8t-49.5 -30t-64 -39q34 38 68 86q51 31 87 47q0 50 1.5 144.5t1.5 137.5v89q-25 -4 -51 -11l-71 -20l-79 -23 l127 161q4 2 10.5 6.5t9 6t8 4.5t10 4t11 3t14.5 3v11l31 88q1 -3 3 -21t5 -35.5t6 -23.5q52 0 206.5 -21t234.5 -21h8q30 0 96.5 11t117.5 21.5t53 11.5l-120 -149q-114 -41 -164 -41q-60 0 -203.5 17.5t-198.5 17.5q0 -32 21 -140.5t21 -194.5l38 22q25 14 34 18l30 14 q19 9 33 12t34.5 5.5t44.5 2.5q46 -5 108.5 -31.5t107.5 -26.5q27 0 48.5 9t48 25t45.5 24l-102 -131q-4 -2 -20 -9l-20 -9q-4 -2 -17.5 -7.5t-19.5 -7.5t-17.5 -5.5t-19 -5t-17.5 -2.5t-19 -1zM766 1010q-35 0 -103.5 30.5t-128.5 30.5q-48 0 -74 -21v-895 q20 -16 63.5 -26.5t65.5 -10.5q58 0 138 44q-81 -91 -150 -151q-28 -29 -104 -29q-67 0 -122.5 14t-84.5 31t-57.5 31t-47.5 14q-35 -4 -41 -6t-70 -40l200 175q7 5 42 5q13 73 25 355t12 461q-17 0 -33.5 -8t-49.5 -30t-64 -39q34 38 68 86q51 31 87 47q0 50 1.5 144.5 t1.5 137.5v89q-25 -4 -51 -11l-71 -20l-79 -23l127 161q4 2 10.5 6.5t9 6t8 4.5t10 4t11 3t14.5 3v11l31 88q1 -3 3 -21t5 -35.5t6 -23.5q52 0 206.5 -21t234.5 -21h8q30 0 96.5 11t117.5 21.5t53 11.5l-120 -149q-114 -41 -164 -41q-60 0 -203.5 17.5t-198.5 17.5 q0 -32 21 -140.5t21 -194.5l38 22q25 14 34 18l30 14q19 9 33 12t34.5 5.5t44.5 2.5q46 -5 108.5 -31.5t107.5 -26.5q27 0 48.5 9t48 25t45.5 24l-102 -131q-4 -2 -20 -9l-20 -9q-4 -2 -17.5 -7.5t-19.5 -7.5t-17.5 -5.5t-19 -5t-17.5 -2.5t-19 -1z" />
<glyph unicode="&#xfb06;" horiz-adv-x="2226" d="M1594 1132q0 -98 18 -396t18 -424q0 -42 2 -120t2 -113q61 -23 90 -23q56 0 130 30l-204 -206q-59 0 -103.5 9.5t-70.5 23t-46.5 26.5t-43 22.5t-49.5 9.5q-50 0 -121 -40l235 211q0 149 29.5 520t29.5 479q-41 0 -122 15t-105 15h-13q-67 0 -134.5 -19t-171.5 -59 l98 184q46 28 117 40t119 12q12 0 12 -3q41 0 185 -16.5t245 -16.5q81 0 207 19.5t224 47.5l-112 -182q-59 -18 -165.5 -34t-177.5 -16q-21 0 -62 2t-60 2zM625 75q1 1 17 12l28 19l28 23q18 14 30 25.5t20.5 23.5t8.5 21q0 70 -37 132.5t-96.5 110t-131.5 92.5l-142 85 q-72 41 -131.5 82.5t-96.5 92t-37 104.5q0 50 47 116.5t117.5 128.5t146.5 116t140 86.5t92 32.5q84 0 130.5 -61t46.5 -141q0 -42 -20 -78.5t-46 -60.5l-63 -61q-37 -37 -60 -69l-15 17q35 41 35 103q0 74 -46.5 133t-123.5 59q-80 -42 -148 -105.5t-89 -117.5 q0 -23 38 -58.5t99 -77.5l134 -88q74 -48 147.5 -101t134.5 -106t99 -110t38 -107q-3 -29 -35.5 -75.5t-101.5 -118.5l-113 -116l-134 -129q-83 22 -118.5 30.5t-106 20t-125.5 11.5q-141 0 -235 -67q35 31 100 107t114.5 113t106.5 37q73 -8 179.5 -43t174.5 -43z" />
<glyph unicode="&#xfb1d;" horiz-adv-x="748" d="M445 273q0 40 28 69.5t71 29.5q42 0 70.5 -29t28.5 -70t-28.5 -69.5t-70.5 -28.5t-70.5 28.5t-28.5 69.5zM3236 380zM488 408q0 150 -27.5 285t-78.5 183q-10 6 -23 6q-32 0 -74 -32.5t-71 -72.5l-137 -66q0 99 24 197t67.5 180t113 133t151.5 51q35 0 72 -9 q76 -31 115 -209t39 -478z" />
<glyph unicode="&#xfb1e;" />
<glyph unicode="&#xfb1f;" horiz-adv-x="1496" d="M3984 380zM1236 408q0 150 -27.5 285t-78.5 183q-10 6 -23 6q-32 0 -74 -32.5t-71 -72.5l-137 -66q0 99 24 197t67.5 180t113 133t151.5 51q35 0 72 -9q76 -31 115 -209t39 -478zM3236 380zM488 408q0 150 -27.5 285t-78.5 183q-10 6 -23 6q-32 0 -74 -32.5t-71 -72.5 l-137 -66q0 99 24 197t67.5 180t113 133t151.5 51q35 0 72 -9q76 -31 115 -209t39 -478zM194 -287h-388q-8 42 -8 78q0 37 8 69h388q10 -37 10 -72t-10 -75z" />
<glyph unicode="&#xfb20;" horiz-adv-x="1474" d="M598 1017q-60 -164 -60 -264q0 -52 17 -88.5t41.5 -55.5t68 -29.5t80 -13t93.5 -2.5q70 74 115 128t86.5 116.5t61 121.5t19.5 119q0 41 -13 114t-30 112h248q23 -44 39 -125t16 -136q0 -121 -62.5 -257.5t-163.5 -258.5t-228.5 -237.5t-256.5 -202t-248.5 -143 t-203.5 -68.5q-197 0 -270 69q138 71 314.5 184t339.5 246q-139 41 -212.5 148t-73.5 262q0 175 94 385z" />
<glyph unicode="&#xfb21;" horiz-adv-x="1549" d="M508 634q-98 -156 -98 -283q0 -60 22 -76.5t75 -16.5h42l-83 -261h-94q-234 57 -234 278q0 74 29.5 175.5t61 177t87.5 197.5l18 39q-22 30 -49 77.5t-61 113.5t-44 84l163 157l57 -80l66 -94l62 -86l73 -96l67 -82q40 -49 76.5 -86.5l71.5 -70.5q111 49 169.5 111 t58.5 109q0 70 -143 135l177 216q151 -57 204 -125t53 -169q0 -94 -84 -212t-243 -229q192 -153 519 -347l-146 -217q-584 361 -873 661z" />
<glyph unicode="&#xfb22;" horiz-adv-x="1280" d="M285 954l-66 -147q-19 13 -83 79l-68 71l168 333q15 -11 57.5 -48.5t76.5 -60t74 -34.5q88 -15 159 -15q112 0 225.5 45.5t250.5 160.5l99 -279q-137 -85 -192 -146q-35 -135 -35 -280q0 -66 5 -117t20 -107t27 -91l43 -118l49 -137l-204 -129q-86 197 -134.5 367 t-48.5 329q0 67 19 155.5t56 155.5q-38 -46 -99.5 -67t-114.5 -21q-81 0 -171 35.5t-113 65.5z" />
<glyph unicode="&#xfb23;" horiz-adv-x="1467" d="M983 961q-80 -76 -220 -76q-80 0 -130 14.5t-114.5 49.5t-112.5 53q-10 -19 -55 -78t-53 -65q-114 19 -184 92l229 375l204 -132q127 -75 228 -75q132 0 204 37q3 14 5 34l4 32q2 12 6 29.5t10 35.5h248q-27 -82 -35 -147.5t-8 -160.5q0 -129 25 -255t55 -208l79 -210 q50 -127 76 -207l-192 -172q-62 143 -117.5 302t-103.5 368.5t-48 363.5zM389 711l282 102q-118 -208 -178 -397t-60 -419h-225q0 263 36.5 407.5t144.5 306.5z" />
<glyph unicode="&#xfb24;" horiz-adv-x="1214" d="M2517 639zM834 354q-29 75 -36 172.5t-7 358.5q-189 -54 -298 -54q-127 0 -204.5 73t-97.5 249l177 186q14 -127 82 -191t164 -64q78 0 156.5 39t137.5 108q12 22 40.5 34.5t60.5 12.5q41 0 69.5 -21.5t28.5 -63.5q0 -21 -5 -38q-86 -205 -86 -369q0 -220 79 -468 q0 -214 -250 -295q-175 -57 -550 -62q-65 -1 -192 -1h-8l80 284h4q2 0 59.5 -1t105.5 -1q375 0 447 67q43 43 43 45z" />
<glyph unicode="&#xfb25;" horiz-adv-x="1173" d="M433 1296q188 -22 385.5 -132t260.5 -230q0 -612 -532 -968h-180l51 60l55 66l53 64q38 46 54 71l48 68q31 45 46 73l36 69q21 41 31 73.5t17.5 69t7.5 70.5q0 125 -7 161q-55 89 -166.5 152t-227.5 89.5t-226 26.5q42 92 70 340t28 460q0 119 -11 158q-53 -2 -90 -90.5 t-37 -188.5q0 -29 29 -110t37 -126l-75 -70q-12 27 -49 104.5t-50.5 110t-28.5 84t-15 91.5q0 137 55.5 254t164.5 255q34 36 79.5 58.5t76.5 22.5q49 0 73 -70q46 -179 46 -633q0 -111 -2 -212t-4.5 -158.5t-2.5 -62.5z" />
<glyph unicode="&#xfb26;" horiz-adv-x="1475" d="M220 1311q0 -217 211 -217q11 0 17 1q4 33 14 97t14 104h203l-15 -198q119 0 195.5 48t177.5 161l47 -11q144 -146 227.5 -424.5t83.5 -568.5q0 -105 -15 -198q-280 -29 -367 -45q-220 -42 -340 -145q-35 -29 -64 -65h-248q-17 128 -17 273q0 128 10.5 248.5t33 285.5 t28.5 216q-27 -6 -58 -6q-137 0 -209.5 67.5t-72.5 202.5zM637 864l-9 -70q-7 -54 -8.5 -69.5t-6.5 -58.5t-7 -65l-4 -59q-2 -37 -2.5 -71t-0.5 -72q0 -119 14 -236q64 32 107 51l74 32q30 12 73.5 20.5t70.5 13t103 14.5l134 18q0 185 -37 343t-129 368l-54 -39 q-37 -28 -58 -41t-59.5 -31.5t-87.5 -29.5t-113 -18z" />
<glyph unicode="&#xfb27;" horiz-adv-x="1203" d="M288 1221q0 -68 24.5 -127t61.5 -59q31 0 73 18q104 53 146 76t100 63.5t102 88.5h102q113 -225 158 -386.5t45 -307.5q0 -157 -38 -413l-159 -182v224v53q0 121 -1.5 187t-9.5 153.5t-23.5 145t-44.5 122.5t-72 124q-65 -96 -171 -146.5t-242 -50.5q-118 0 -192.5 66 t-74.5 168z" />
<glyph unicode="&#xfb28;" horiz-adv-x="1436" d="M546 1266q96 -118 109 -196q80 20 154 60t167.5 105t133.5 89q48 0 77.5 -9.5t49.5 -43.5q0 -553 94 -799q24 -54 39.5 -118t15.5 -105l-210 -199q-56 238 -87.5 451t-31.5 454l-295 -159q34 -137 34 -249q0 -491 -620 -587q-17 15 -119 90l86 32q34 13 81.5 33t79 37.5 t70.5 42t64 49t51 57t41 67t24.5 77.5t9.5 91q0 102 -30 211l-144 -18l-79 202l124 47q0 17 -6.5 38t-13.5 37t-23 41.5t-24 35.5l-26 38q-19 26 -21 29z" />
<glyph unicode="&#xfb29;" horiz-adv-x="1052" d="M94 418v229h304v291h269v-291h293v-229h-866z" />
<glyph unicode="&#xfb2a;" horiz-adv-x="1908" d="M1524 932q0 69 -41 114.5t-102 45.5l251 241q51 -34 88.5 -83.5t57 -104.5t28.5 -108t9 -106q0 -43 -4 -72q-14 -89 -59 -171t-106.5 -146.5t-145.5 -126t-168 -107t-182 -92.5q-100 -46 -180 -79l-168 -71q-88 -38 -141 -66l-172 -78q-40 0 -88 14q46 148 67 252t21 203 q0 60 -11 116t-26 99.5t-45 92t-53.5 79.5t-66 75.5t-67.5 67.5l-74 68l-72 65q86 98 205 210q96 -89 197 -201t156 -194q98 35 163.5 104.5t65.5 137.5q0 23 -17 53t-39 50l302 62q14 -27 24.5 -78t10.5 -80q0 -90 -29.5 -157.5t-81.5 -111t-105 -73.5l-120 -67 q-66 -36 -104 -69q6 -33 15 -69t12.5 -59t3.5 -56q0 -24 -1 -40t-4.5 -31.5t-5.5 -22t-9 -26t-11 -29.5q103 14 218.5 61.5t211.5 107.5t178 124t131.5 116t59.5 78q23 61 23 138zM-99 1323q0 40 28 69.5t71 29.5q42 0 70.5 -29t28.5 -70t-28.5 -69.5t-70.5 -28.5 t-70.5 28.5t-28.5 69.5z" />
<glyph unicode="&#xfb2b;" horiz-adv-x="1908" d="M1524 932q0 69 -41 114.5t-102 45.5l251 241q51 -34 88.5 -83.5t57 -104.5t28.5 -108t9 -106q0 -43 -4 -72q-14 -89 -59 -171t-106.5 -146.5t-145.5 -126t-168 -107t-182 -92.5q-100 -46 -180 -79l-168 -71q-88 -38 -141 -66l-172 -78q-40 0 -88 14q46 148 67 252t21 203 q0 60 -11 116t-26 99.5t-45 92t-53.5 79.5t-66 75.5t-67.5 67.5l-74 68l-72 65q86 98 205 210q96 -89 197 -201t156 -194q98 35 163.5 104.5t65.5 137.5q0 23 -17 53t-39 50l302 62q14 -27 24.5 -78t10.5 -80q0 -90 -29.5 -157.5t-81.5 -111t-105 -73.5l-120 -67 q-66 -36 -104 -69q6 -33 15 -69t12.5 -59t3.5 -56q0 -24 -1 -40t-4.5 -31.5t-5.5 -22t-9 -26t-11 -29.5q103 14 218.5 61.5t211.5 107.5t178 124t131.5 116t59.5 78q23 61 23 138zM-99 1323q0 40 28 69.5t71 29.5q42 0 70.5 -29t28.5 -70t-28.5 -69.5t-70.5 -28.5 t-70.5 28.5t-28.5 69.5z" />
<glyph unicode="&#xfb2e;" horiz-adv-x="1549" d="M508 634q-98 -156 -98 -283q0 -60 22 -76.5t75 -16.5h42l-83 -261h-94q-234 57 -234 278q0 74 29.5 175.5t61 177t87.5 197.5l18 39q-22 30 -49 77.5t-61 113.5t-44 84l163 157l57 -80l66 -94l62 -86l73 -96l67 -82q40 -49 76.5 -86.5l71.5 -70.5q111 49 169.5 111 t58.5 109q0 70 -143 135l177 216q151 -57 204 -125t53 -169q0 -94 -84 -212t-243 -229q192 -153 519 -347l-146 -217q-584 361 -873 661zM194 -287h-388q-8 42 -8 78q0 37 8 69h388q10 -37 10 -72t-10 -75z" />
<glyph unicode="&#xfb2f;" horiz-adv-x="1549" d="M508 634q-98 -156 -98 -283q0 -60 22 -76.5t75 -16.5h42l-83 -261h-94q-234 57 -234 278q0 74 29.5 175.5t61 177t87.5 197.5l18 39q-22 30 -49 77.5t-61 113.5t-44 84l163 157l57 -80l66 -94l62 -86l73 -96l67 -82q40 -49 76.5 -86.5l71.5 -70.5q111 49 169.5 111 t58.5 109q0 70 -143 135l177 216q151 -57 204 -125t53 -169q0 -94 -84 -212t-243 -229q192 -153 519 -347l-146 -217q-584 361 -873 661zM-214 -140h428q5 -45 5 -83q0 -36 -5 -81h-121v-250q-36 -5 -85 -5q-48 0 -82 5v250h-140q-8 35 -8 75q0 29 8 89z" />
<glyph unicode="&#xfb30;" horiz-adv-x="1549" d="M508 634q-98 -156 -98 -283q0 -60 22 -76.5t75 -16.5h42l-83 -261h-94q-234 57 -234 278q0 74 29.5 175.5t61 177t87.5 197.5l18 39q-22 30 -49 77.5t-61 113.5t-44 84l163 157l57 -80l66 -94l62 -86l73 -96l67 -82q40 -49 76.5 -86.5l71.5 -70.5q111 49 169.5 111 t58.5 109q0 70 -143 135l177 216q151 -57 204 -125t53 -169q0 -94 -84 -212t-243 -229q192 -153 519 -347l-146 -217q-584 361 -873 661zM-99 559q0 41 29 70t70 29t70 -29t29 -70t-29 -69t-70 -28t-70 28t-29 69z" />
<glyph unicode="&#xfb31;" horiz-adv-x="1433" d="M285 894q-45 64 -45 132q25 214 82 273h184q0 -4 -11.5 -61.5t-11.5 -78.5q0 -53 93 -67q44 5 102.5 36t95.5 60l37 28l228 -83v-140q-13 -59 -13 -140q0 -139 35 -302.5t89 -290.5q29 -4 89.5 -19.5t87.5 -19.5v-269q-371 69 -595 69q-154 0 -307 -42q-49 -14 -230 -72 l-86 254q222 90 375 120t357 30q-66 249 -66 478v222q-33 -63 -113 -118t-146 -55h-20q-166 0 -211 56zM-99 559q0 41 29 70t70 29t70 -29t29 -70t-29 -69t-70 -28t-70 28t-29 69z" />
<glyph unicode="&#xfb32;" horiz-adv-x="1104" d="M400 1161l231 135q-3 -12 -3 -63q0 -76 8 -161t39 -213t81 -241t144.5 -229t219.5 -191l-184 -222q-66 58 -171 186t-144 213q-26 32 -47 42t-46 10h-22q-47 0 -86 -36t-65 -99.5t-43 -136t-27 -158.5l-69 43l-77 44l-60 33q0 71 22 146.5t66.5 153.5t126 147t188.5 111 q-31 73 -56.5 249t-25.5 232v5zM-99 559q0 41 29 70t70 29t70 -29t29 -70t-29 -69t-70 -28t-70 28t-29 69z" />
<glyph unicode="&#xfb33;" horiz-adv-x="1280" d="M285 954l-66 -147q-19 13 -83 79l-68 71l168 333q15 -11 57.5 -48.5t76.5 -60t74 -34.5q88 -15 159 -15q112 0 225.5 45.5t250.5 160.5l99 -279q-137 -85 -192 -146q-35 -135 -35 -280q0 -66 5 -117t20 -107t27 -91l43 -118l49 -137l-204 -129q-86 197 -134.5 367 t-48.5 329q0 67 19 155.5t56 155.5q-38 -46 -99.5 -67t-114.5 -21q-81 0 -171 35.5t-113 65.5zM-99 559q0 41 29 70t70 29t70 -29t29 -70t-29 -69t-70 -28t-70 28t-29 69z" />
<glyph unicode="&#xfb34;" horiz-adv-x="1467" d="M983 961q-80 -76 -220 -76q-80 0 -130 14.5t-114.5 49.5t-112.5 53q-10 -19 -55 -78t-53 -65q-114 19 -184 92l229 375l204 -132q127 -75 228 -75q132 0 204 37q3 14 5 34l4 32q2 12 6 29.5t10 35.5h248q-27 -82 -35 -147.5t-8 -160.5q0 -129 25 -255t55 -208l79 -210 q50 -127 76 -207l-192 -172q-62 143 -117.5 302t-103.5 368.5t-48 363.5zM389 711l282 102q-118 -208 -178 -397t-60 -419h-225q0 263 36.5 407.5t144.5 306.5zM-99 559q0 41 29 70t70 29t70 -29t29 -70t-29 -69t-70 -28t-70 28t-29 69z" />
<glyph unicode="&#xfb35;" horiz-adv-x="768" d="M162 556q0 41 29 70t70 29t70 -29t29 -70t-29 -69t-70 -28t-70 28t-29 69zM60 756q35 63 111.5 166.5t131.5 171.5l151 184q19 0 40 -3q38 0 67.5 -123.5t45.5 -322t23.5 -409t7.5 -420.5h-248q34 210 34 416q0 390 -35 565q-10 6 -23 6q-34 0 -78.5 -50.5t-62.5 -105.5z " />
<glyph unicode="&#xfb36;" horiz-adv-x="748" d="M10 559q0 41 29 70t70 29t70 -29t29 -70t-29 -69t-70 -28t-70 28t-29 69zM658 129l-237 -157q-69 239 -88.5 401.5t-19.5 486.5q0 147 -105 195l207 261q89 -37 168 -122.5t114 -174.5l-147 -171l-30 21q-21 -69 -21 -154q0 -98 25 -206t55 -180l54 -131q25 -58 25 -69z " />
<glyph unicode="&#xfb38;" horiz-adv-x="1561" d="M492 851q0 -112 23.5 -223t56 -185.5t62 -122t44.5 -53.5q74 -8 125 -8q109 0 185 31t122.5 82.5t94.5 142.5q27 59 27 146v5v9q0 38 -1 62.5t-4.5 65.5t-13 69t-24 57t-39.5 45.5t-58 20.5q0 1 -14 1l-13 -1q-24 0 -42 -4.5t-33.5 -20.5t-25 -29.5t-22.5 -48.5 q-14 -34 -22 -60l-27 -82l-32 -97l-41 31l-33 24l-25 19q-16 13 -19 15t-15 13t-14 13t-13.5 14.5t-16 18t-19.5 22.5q33 87 64 152.5t75.5 133t92 110.5t112.5 70.5t139 27.5q141 -59 229 -225.5t88 -379.5q0 -335 -160 -573q-208 -80 -368 -116.5t-373 -36.5 q-156 207 -222 400.5t-66 476.5q-133 22 -200 92l231 383l228 -108q-43 -102 -43 -379zM-99 559q0 41 29 70t70 29t70 -29t29 -70t-29 -69t-70 -28t-70 28t-29 69z" />
<glyph unicode="&#xfb39;" horiz-adv-x="748" d="M191 592q0 41 29 70t70 29t70 -29t29 -70t-29 -69t-70 -28t-70 28t-29 69zM3236 380zM488 408q0 150 -27.5 285t-78.5 183q-10 6 -23 6q-32 0 -74 -32.5t-71 -72.5l-137 -66q0 99 24 197t67.5 180t113 133t151.5 51q35 0 72 -9q76 -31 115 -209t39 -478z" />
<glyph unicode="&#xfb3a;" horiz-adv-x="1104" d="M2424 400zM701 291q-29 78 -35.5 190t-6.5 394q-189 -54 -298 -54q-127 0 -204.5 73t-97.5 249l177 186q14 -127 82 -191t164 -64q78 0 156.5 39t137.5 108q12 22 40.5 34.5t60.5 12.5q41 0 69.5 -21.5t28.5 -63.5q0 -21 -5 -38q-86 -205 -86 -369q0 -276 78 -521 q18 -78 18 -170q0 -194 -62 -349t-133 -224q-12 18 -34 35.5t-26 21.5q22 46 29 114t7 179q0 189 -60 429zM-99 559q0 41 29 70t70 29t70 -29t29 -70t-29 -69t-70 -28t-70 28t-29 69z" />
<glyph unicode="&#xfb3b;" horiz-adv-x="1214" d="M2517 639zM834 354q-29 75 -36 172.5t-7 358.5q-189 -54 -298 -54q-127 0 -204.5 73t-97.5 249l177 186q14 -127 82 -191t164 -64q78 0 156.5 39t137.5 108q12 22 40.5 34.5t60.5 12.5q41 0 69.5 -21.5t28.5 -63.5q0 -21 -5 -38q-86 -205 -86 -369q0 -220 79 -468 q0 -214 -250 -295q-175 -57 -550 -62q-65 -1 -192 -1h-8l80 284h4q2 0 59.5 -1t105.5 -1q375 0 447 67q43 43 43 45zM-99 559q0 41 29 70t70 29t70 -29t29 -70t-29 -69t-70 -28t-70 28t-29 69z" />
<glyph unicode="&#xfb3c;" horiz-adv-x="1173" d="M433 1296q188 -22 385.5 -132t260.5 -230q0 -612 -532 -968h-180l51 60l55 66l53 64q38 46 54 71l48 68q31 45 46 73l36 69q21 41 31 73.5t17.5 69t7.5 70.5q0 125 -7 161q-55 89 -166.5 152t-227.5 89.5t-226 26.5q42 92 70 340t28 460q0 119 -11 158q-53 -2 -90 -90.5 t-37 -188.5q0 -29 29 -110t37 -126l-75 -70q-12 27 -49 104.5t-50.5 110t-28.5 84t-15 91.5q0 137 55.5 254t164.5 255q34 36 79.5 58.5t76.5 22.5q49 0 73 -70q46 -179 46 -633q0 -111 -2 -212t-4.5 -158.5t-2.5 -62.5zM-99 559q0 41 29 70t70 29t70 -29t29 -70t-29 -69 t-70 -28t-70 28t-29 69z" />
<glyph unicode="&#xfb3e;" horiz-adv-x="1249" d="M204 1166l175 112q0 -10 -1.5 -28.5t-1.5 -27.5q0 -65 28.5 -127.5t69 -104t76.5 -68t57 -32.5q85 80 122.5 164t37.5 154l164 88l46 -128q38 -106 50 -146l44 -133q31 -93 45 -147l31 -130q18 -76 25 -136t7 -114q0 -263 -194 -342q-241 -55 -408.5 -75.5t-393.5 -20.5 q27 52 50.5 89.5t53.5 80t46 67.5h112q174 0 282.5 21t167.5 90q29 37 37 70t8 88v33q0 228 -75 424l-75 -115q-30 -43 -69 -94t-69.5 -80t-74 -62t-87 -52t-102.5 -38.5t-127 -32.5t-155 -24l21 178q114 26 169 55t146 106q-72 28 -136.5 97t-97 134t-32.5 102v22 q0 32 28 83zM-99 559q0 41 29 70t70 29t70 -29t29 -70t-29 -69t-70 -28t-70 28t-29 69z" />
<glyph unicode="&#xfb40;" horiz-adv-x="979" d="M965 165q-47 -40 -106 -70.5t-112 -49.5t-125.5 -35t-124.5 -24l-133 -20q-81 -12 -128 -20l-135 231q87 0 188.5 23t170 48t173.5 68q-60 88 -92 142.5t-64 131t-45 159.5t-13 190q-44 -55 -98 -55q-23 0 -70 10l66 261q60 0 108 18.5t74.5 42t63 49t72.5 35.5 q3 0 7 0.5t7 0.5q45 0 85 -50q-34 -99 -56 -213t-22 -186q0 -57 8.5 -97.5t17.5 -59t39 -65.5t47 -78q56 -52 84 -81.5t63 -83.5t64 -125q5 -15 5 -29q0 -27 -19 -68zM-99 559q0 41 29 70t70 29t70 -29t29 -70t-29 -69t-70 -28t-70 28t-29 69z" />
<glyph unicode="&#xfb41;" horiz-adv-x="1396" d="M984 894q-244 0 -492 -65q15 -110 15 -159q0 -53 -6.5 -84t-19 -74.5t-21.5 -101.5q19 -18 70 -78.5t93 -96t80 -35.5q63 0 108 16.5t76.5 56.5t50.5 90.5t29 135.5t13.5 173.5t3.5 221.5zM266 296q54 203 54 334q0 100 -32 167q-65 9 -119 40.5t-82 76.5l233 396 l259 -84q0 -16 -4 -44t-4 -39q0 -22 12 -33.5t44 -11.5q110 0 193 20.5t129.5 50.5t81.5 60t71 53t76 26q44 0 83 -8q4 -15 17 -54.5t19 -69t6 -60.5q0 -75 -45 -160q0 -202 -32.5 -373t-86 -287.5t-123 -198.5t-143 -120t-146.5 -38q-105 0 -178 61.5t-131 175.5zM-99 559 q0 41 29 70t70 29t70 -29t29 -70t-29 -69t-70 -28t-70 28t-29 69z" />
<glyph unicode="&#xfb43;" horiz-adv-x="1182" d="M880 -408q0 161 -21 437t-63.5 562t-90.5 384q-14 -7 -74.5 -32.5t-94 -42.5t-97 -63t-127.5 -108q0 -53 46 -104t93 -80l-126 -120q-95 52 -173 173t-92 223q126 117 322 257.5t362 212.5q7 0 20 1t20 1q41 0 80 -46q71 -108 121.5 -328.5t74 -479.5t33 -465.5 t9.5 -381.5h-222zM-99 559q0 41 29 70t70 29t70 -29t29 -70t-29 -69t-70 -28t-70 28t-29 69z" />
<glyph unicode="&#xfb44;" horiz-adv-x="1212" d="M1137 189q-86 -129 -363.5 -205.5t-647.5 -76.5l117 225q119 14 204.5 29.5t161 40.5t106.5 38t111 50q19 8 29 13q0 209 -21.5 355.5t-81.5 328.5q-14 -7 -74.5 -32.5t-94 -42.5t-97 -63t-127.5 -108q0 -28 9.5 -44.5t21 -22t32.5 -13t33 -14.5l-126 -120 q-194 105 -222 303q126 117 322 257.5t362 212.5q7 0 20 1t20 1q41 0 80 -46q105 -247 165.5 -521t60.5 -546zM-99 559q0 41 29 70t70 29t70 -29t29 -70t-29 -69t-70 -28t-70 28t-29 69z" />
<glyph unicode="&#xfb46;" horiz-adv-x="1308" d="M916 1308q49 -13 96 -37.5t90 -60t69 -86t26 -107.5q0 -45 -15.5 -86t-40 -73.5t-64.5 -65t-78 -56t-92.5 -50.5t-96.5 -45l-100 -44q-60 -26 -95 -43q51 -49 123 -85q70 -35 132 -55l117 -38q55 -18 87.5 -43.5t32.5 -62.5q0 -212 -308 -277q-289 -71 -525 -71h-180 l117 216q150 0 325 24.5t311 65.5q-122 0 -247.5 63.5t-223 165t-159 238t-61.5 273.5q0 10 1.5 30t1.5 30q0 65 41 226h248q-26 -62 -46 -135.5t-20 -118.5q0 -111 65 -226q4 -8 32 -8q56 0 163.5 28t199 71t91.5 77q0 28 -12.5 52.5t-30.5 39.5t-36 26t-30 16l-13 4z M-99 559q0 41 29 70t70 29t70 -29t29 -70t-29 -69t-70 -28t-70 28t-29 69z" />
<glyph unicode="&#xfb47;" horiz-adv-x="1370" d="M412 774q134 -219 262 -537.5t128 -489.5l-155 -154q-24 151 -64.5 277t-93.5 223.5t-103 172.5l-114 170q-64 95 -107 170zM1228 1251q53 -77 53 -174q0 -124 -78 -256q-24 -41 -55 -76t-59.5 -59t-69.5 -49t-69 -39l-76 -38l-71 -36l-175 49q238 153 358 389q4 15 4 32 q0 41 -40 55q-63 -25 -149 -67l-147 -74q-60 -32 -141 -56t-157 -24q-98 0 -185.5 87t-87.5 155q0 30 12 51l115 141q86 104 104 130q6 -25 10 -70.5t8.5 -80.5t15 -70.5t35 -55t62.5 -19.5q5 0 15 1t16 1q82 0 162.5 18t147 46t124.5 57l120 57q62 28 109 41h2 q13 0 45 -26.5t42 -39.5zM-99 559q0 41 29 70t70 29t70 -29t29 -70t-29 -69t-70 -28t-70 28t-29 69z" />
<glyph unicode="&#xfb48;" horiz-adv-x="1203" d="M288 1221q0 -68 24.5 -127t61.5 -59q31 0 73 18q104 53 146 76t100 63.5t102 88.5h102q113 -225 158 -386.5t45 -307.5q0 -157 -38 -413l-159 -182v224v53q0 121 -1.5 187t-9.5 153.5t-23.5 145t-44.5 122.5t-72 124q-65 -96 -171 -146.5t-242 -50.5q-118 0 -192.5 66 t-74.5 168zM-99 559q0 41 29 70t70 29t70 -29t29 -70t-29 -69t-70 -28t-70 28t-29 69z" />
<glyph unicode="&#xfb49;" horiz-adv-x="1908" d="M1524 932q0 69 -41 114.5t-102 45.5l251 241q51 -34 88.5 -83.5t57 -104.5t28.5 -108t9 -106q0 -43 -4 -72q-14 -89 -59 -171t-106.5 -146.5t-145.5 -126t-168 -107t-182 -92.5q-100 -46 -180 -79l-168 -71q-88 -38 -141 -66l-172 -78q-40 0 -88 14q46 148 67 252t21 203 q0 60 -11 116t-26 99.5t-45 92t-53.5 79.5t-66 75.5t-67.5 67.5l-74 68l-72 65q86 98 205 210q96 -89 197 -201t156 -194q98 35 163.5 104.5t65.5 137.5q0 23 -17 53t-39 50l302 62q14 -27 24.5 -78t10.5 -80q0 -90 -29.5 -157.5t-81.5 -111t-105 -73.5l-120 -67 q-66 -36 -104 -69q6 -33 15 -69t12.5 -59t3.5 -56q0 -24 -1 -40t-4.5 -31.5t-5.5 -22t-9 -26t-11 -29.5q103 14 218.5 61.5t211.5 107.5t178 124t131.5 116t59.5 78q23 61 23 138zM-99 559q0 41 29 70t70 29t70 -29t29 -70t-29 -69t-70 -28t-70 28t-29 69z" />
<glyph unicode="&#xfb4a;" horiz-adv-x="1436" d="M546 1266q96 -118 109 -196q80 20 154 60t167.5 105t133.5 89q48 0 77.5 -9.5t49.5 -43.5q0 -553 94 -799q24 -54 39.5 -118t15.5 -105l-210 -199q-56 238 -87.5 451t-31.5 454l-295 -159q34 -137 34 -249q0 -491 -620 -587q-17 15 -119 90l86 32q34 13 81.5 33t79 37.5 t70.5 42t64 49t51 57t41 67t24.5 77.5t9.5 91q0 102 -30 211l-144 -18l-79 202l124 47q0 17 -6.5 38t-13.5 37t-23 41.5t-24 35.5l-26 38q-19 26 -21 29zM-99 559q0 41 29 70t70 29t70 -29t29 -70t-29 -69t-70 -28t-70 28t-29 69z" />
<glyph unicode="&#xfb4b;" horiz-adv-x="768" d="M60 756q35 63 111.5 166.5t131.5 171.5l151 184q19 0 40 -3q38 0 67.5 -123.5t45.5 -322t23.5 -409t7.5 -420.5h-248q34 210 34 416q0 390 -35 565q-10 6 -23 6q-34 0 -78.5 -50.5t-62.5 -105.5zM-99 1382q0 40 28 69.5t71 29.5q42 0 70.5 -29t28.5 -70t-28.5 -69.5 t-70.5 -28.5t-70.5 28.5t-28.5 69.5z" />
<glyph unicode="&#xfb4c;" horiz-adv-x="1433" d="M285 894q-45 64 -45 132q25 214 82 273h184q0 -4 -11.5 -61.5t-11.5 -78.5q0 -53 93 -67q44 5 102.5 36t95.5 60l37 28l228 -83v-140q-13 -59 -13 -140q0 -139 35 -302.5t89 -290.5q29 -4 89.5 -19.5t87.5 -19.5v-269q-371 69 -595 69q-154 0 -307 -42q-49 -14 -230 -72 l-86 254q222 90 375 120t357 30q-66 249 -66 478v222q-33 -63 -113 -118t-146 -55h-20q-166 0 -211 56zM246 1337h-492q-18 45 -18 94q0 51 18 107h492q18 -58 18 -103q0 -48 -18 -98z" />
<glyph unicode="&#xfb4d;" horiz-adv-x="1214" d="M2517 639zM834 354q-29 75 -36 172.5t-7 358.5q-189 -54 -298 -54q-127 0 -204.5 73t-97.5 249l177 186q14 -127 82 -191t164 -64q78 0 156.5 39t137.5 108q12 22 40.5 34.5t60.5 12.5q41 0 69.5 -21.5t28.5 -63.5q0 -21 -5 -38q-86 -205 -86 -369q0 -220 79 -468 q0 -214 -250 -295q-175 -57 -550 -62q-65 -1 -192 -1h-8l80 284h4q2 0 59.5 -1t105.5 -1q375 0 447 67q43 43 43 45zM246 1337h-492q-18 45 -18 94q0 51 18 107h492q18 -58 18 -103q0 -48 -18 -98z" />
<glyph unicode="&#xfb4e;" horiz-adv-x="1212" d="M1137 189q-86 -129 -363.5 -205.5t-647.5 -76.5l117 225q119 14 204.5 29.5t161 40.5t106.5 38t111 50q19 8 29 13q0 209 -21.5 355.5t-81.5 328.5q-14 -7 -74.5 -32.5t-94 -42.5t-97 -63t-127.5 -108q0 -28 9.5 -44.5t21 -22t32.5 -13t33 -14.5l-126 -120 q-194 105 -222 303q126 117 322 257.5t362 212.5q7 0 20 1t20 1q41 0 80 -46q105 -247 165.5 -521t60.5 -546zM246 1337h-492q-18 45 -18 94q0 51 18 107h492q18 -58 18 -103q0 -48 -18 -98z" />
<glyph unicode="&#xfb4f;" horiz-adv-x="2722" d="M1681 634q-98 -156 -98 -283q0 -60 22 -76.5t75 -16.5h42l-83 -261h-94q-234 57 -234 278q0 74 29.5 175.5t61 177t87.5 197.5l18 39q-22 30 -49 77.5t-61 113.5t-44 84l163 157l57 -80l66 -94l62 -86l73 -96l67 -82q40 -49 76.5 -86.5l71.5 -70.5q111 49 169.5 111 t58.5 109q0 70 -143 135l177 216q151 -57 204 -125t53 -169q0 -94 -84 -212t-243 -229q192 -153 519 -347l-146 -217q-584 361 -873 661zM433 1296q188 -22 385.5 -132t260.5 -230q0 -612 -532 -968h-180l51 60l55 66l53 64q38 46 54 71l48 68q31 45 46 73l36 69 q21 41 31 73.5t17.5 69t7.5 70.5q0 125 -7 161q-55 89 -166.5 152t-227.5 89.5t-226 26.5q42 92 70 340t28 460q0 119 -11 158q-53 -2 -90 -90.5t-37 -188.5q0 -29 29 -110t37 -126l-75 -70q-12 27 -49 104.5t-50.5 110t-28.5 84t-15 91.5q0 137 55.5 254t164.5 255 q34 36 79.5 58.5t76.5 22.5q49 0 73 -70q46 -179 46 -633q0 -111 -2 -212t-4.5 -158.5t-2.5 -62.5z" />
</font>
</defs>
</svg>
